M48
;DRILL FILE
;Generated by LibrePCB 0.1.1-unstable
;Creation Date: 2019-06-09T12:53:25
FMAT,2
METRIC,TZ
T1C0.3
T2C0.4
T3C0.6
T4C1.016
T5C1.397
%
G90
G05
M71
T1
X17.4625Y8.89
X3.01625Y10.16
X7.9375Y6.985
X4.445Y15.875
X11.90625Y5.55625
X11.90625Y15.08125
X1.5875Y10.16
X13.0175Y5.55625
X4.7625Y3.175
X12.85875Y2.38125
X13.49375Y11.90625
X19.84375Y4.7625
X1.5875Y7.62
X41.275Y4.60375
X29.36875Y3.81
X19.84375Y6.0325
X24.765Y4.60375
X1.5875Y6.35
X7.9375Y8.255
X16.03375Y10.95375
X10.63625Y13.17625
X14.9225Y5.715
X13.17625Y14.9225
X3.01625Y6.35
X7.46125Y4.92125
X3.01625Y8.89
X17.4625Y13.97
X14.2875Y14.12875
X7.46125Y5.715
X3.01625Y7.62
X38.735Y9.2075
X14.12875Y15.5575
X1.5875Y8.89
X33.02Y4.60375
X6.6675Y0.9525
X10.95375Y9.36625
X21.11375Y3.81
X15.24Y6.35
X14.2875Y5.715
X30.48Y9.2075
X15.5575Y5.715
X21.59Y9.2075
X14.9225Y11.90625
X21.11375Y2.8575
X7.9375Y9.2075
X19.84375Y9.525
X37.62375Y3.81
X14.9225Y15.5575
T2
X20.79625Y0.635
X19.20875Y0.635
X20.0025Y0.635
X21.59Y0.635
T3
X35.8775Y13.97
X27.6225Y13.97
X10.95375Y2.8575
X44.1325Y13.97
X48.895Y12.065
X47.625Y12.065
X47.625Y10.795
X48.895Y10.795
T4
X56.1975Y10.795
X56.1975Y5.715
T5
X56.1975Y14.9225
X56.1975Y1.5875
T0
M30
