G04 --- HEADER BEGIN --- *
%TF.GenerationSoftware,LibrePCB,LibrePCB,0.1.1-unstable*%
%TF.CreationDate,2019-06-09T12:53:25*%
%TF.ProjectId,Brushless Controller - default,345039e0-aa20-4574-aecf-6ad16ab42204,v1*%
%TF.Part,Single*%
%FSLAX66Y66*%
%MOMM*%
G01*
G74*
G04 --- HEADER END --- *
G04 --- APERTURE LIST BEGIN --- *
%ADD10C,0.0*%
%ADD11C,0.15*%
%ADD12C,0.1524*%
%ADD13C,0.0508*%
%ADD14C,0.9144X0.6096*%
%ADD15C,0.127*%
%ADD16C,0.1016*%
%ADD17C,0.2032*%
%ADD18C,0.2*%
%ADD19R,1.4X1.4*%
%ADD20R,1.15X1.05*%
%ADD21R,2.232X0.8604*%
%ADD22R,5.28X2.0288*%
%ADD23R,2.6X2.4*%
%ADD24R,2.36X1.98*%
%ADD25R,3.4X5.2*%
%ADD26R,2.74X5.28*%
%ADD27R,0.9X1.6*%
%ADD28R,5.2X4.5*%
%ADD29R,1.05X1.15*%
%ADD30P,2.74X8X22.5*%
%ADD31R,1.3X1.2*%
%ADD32R,2.2X1.0*%
%ADD33R,3.2X2.3*%
%ADD34R,1.2X1.3*%
%ADD35P,2.74X8X292.5*%
%ADD36C,2.74*%
%ADD37C,1.2*%
G04 --- APERTURE LIST END --- *
G04 --- BOARD BEGIN --- *
D10*
X6508750Y16232500D02*
X6508750Y16082500D01*
X6208750Y16082500D01*
X6208750Y16232500D01*
X6508750Y16232500D01*
G36*
X6508750Y16232500D02*
X6508750Y16082500D01*
X6208750Y16082500D01*
X6208750Y16232500D01*
X6508750Y16232500D01*
G37*
X6508750Y15707500D02*
X6508750Y15407500D01*
X6208750Y15407500D01*
X6208750Y15707500D01*
X6508750Y15707500D01*
G36*
X6508750Y15707500D02*
X6508750Y15407500D01*
X6208750Y15407500D01*
X6208750Y15707500D01*
X6508750Y15707500D01*
G37*
X6508750Y15032500D02*
X6508750Y14882500D01*
X6208750Y14882500D01*
X6208750Y15032500D01*
X6508750Y15032500D01*
G36*
X6508750Y15032500D02*
X6508750Y14882500D01*
X6208750Y14882500D01*
X6208750Y15032500D01*
X6508750Y15032500D01*
G37*
D11*
X10017500Y15082500D02*
X9667500Y15082500D01*
X10017500Y16032500D02*
X9667500Y16032500D01*
D12*
X10287000Y5397500D02*
X13843000Y5397500D01*
X14097000Y571500D02*
G02*
X13843000Y317500I254000J0D01*
G01*
D13*
X13665200Y5397500D02*
X13665200Y317500D01*
D12*
X10033000Y1714500D02*
X10033000Y1460500D01*
X10287000Y317500D02*
X13843000Y317500D01*
X14097000Y4254500D02*
X14097000Y4000500D01*
X10033000Y4254500D02*
X10033000Y4000500D01*
X10033000Y571500D02*
G03*
X10287000Y317500I254000J0D01*
G01*
X13843000Y5397500D02*
G02*
X14097000Y5143500I0J254000D01*
G01*
X10287000Y5397500D02*
G03*
X10033000Y5143500I0J254000D01*
G01*
X10033000Y2984500D02*
X10033000Y2730500D01*
X14097000Y2984500D02*
X14097000Y2730500D01*
X14097000Y1714500D02*
X14097000Y1460500D01*
D14*
X13843000Y1841500D03*
D11*
X12948334Y9682500D02*
X13298334Y9682500D01*
X12948334Y8732500D02*
X13298334Y8732500D01*
D12*
X5969000Y2755900D02*
X381000Y2755900D01*
X381000Y419100D01*
X5969000Y419100D01*
X5969000Y2755900D01*
D15*
X8401250Y11588750D02*
X8731250Y11866250D01*
X11601250Y11588750D02*
X11601250Y7143750D01*
X11271250Y11866250D02*
X11601250Y11588750D01*
X11601250Y7143750D02*
X11271250Y6866250D01*
X11271250Y6866250D02*
X8731250Y6866250D01*
X8401250Y7143750D02*
X8401250Y11588750D01*
X8731250Y11866250D02*
X11271250Y11866250D01*
X8731250Y6866250D02*
X8401250Y7143750D01*
D16*
X51102500Y6332500D02*
X54942500Y6332500D01*
X54942500Y10812500D01*
X51102500Y10812500D01*
X51102500Y6332500D01*
D11*
X16811250Y16032500D02*
X17161250Y16032500D01*
X16811250Y15082500D02*
X17161250Y15082500D01*
D12*
X46291500Y5778500D02*
X46291500Y11366500D01*
X43243500Y11366500D01*
X43243500Y5778500D01*
X46291500Y5778500D01*
D11*
X19827500Y16032500D02*
X20177500Y16032500D01*
X19827500Y15082500D02*
X20177500Y15082500D01*
D17*
X43040000Y11067500D02*
X43040000Y11792500D01*
X38240000Y11792500D02*
X38240000Y11067500D01*
D10*
X2222500Y14882500D02*
X2222500Y15032500D01*
X2522500Y15032500D01*
X2522500Y14882500D01*
X2222500Y14882500D01*
G36*
X2222500Y14882500D02*
X2222500Y15032500D01*
X2522500Y15032500D01*
X2522500Y14882500D01*
X2222500Y14882500D01*
G37*
X2222500Y15407500D02*
X2222500Y15707500D01*
X2522500Y15707500D01*
X2522500Y15407500D01*
X2222500Y15407500D01*
G36*
X2222500Y15407500D02*
X2222500Y15707500D01*
X2522500Y15707500D01*
X2522500Y15407500D01*
X2222500Y15407500D01*
G37*
X2222500Y16082500D02*
X2222500Y16232500D01*
X2522500Y16232500D01*
X2522500Y16082500D01*
X2222500Y16082500D01*
G36*
X2222500Y16082500D02*
X2222500Y16232500D01*
X2522500Y16232500D01*
X2522500Y16082500D01*
X2222500Y16082500D01*
G37*
D11*
X20477500Y3032500D02*
X20477500Y2682500D01*
X19527500Y3032500D02*
X19527500Y2682500D01*
D17*
X43040000Y3447500D02*
X43040000Y4172500D01*
X38240000Y4172500D02*
X38240000Y3447500D01*
X26530000Y11067500D02*
X26530000Y11792500D01*
X21730000Y11792500D02*
X21730000Y11067500D01*
D13*
X4107500Y10380000D02*
X3607500Y10380000D01*
X4107500Y7880000D02*
X3607500Y7880000D01*
X1232500Y11505000D02*
X1232500Y11005000D01*
D10*
X1857500Y9130000D02*
X1857500Y8630000D01*
X982500Y8630000D01*
X982500Y9130000D01*
X1857500Y9130000D01*
G36*
X1857500Y9130000D02*
X1857500Y8630000D01*
X982500Y8630000D01*
X982500Y9130000D01*
X1857500Y9130000D01*
G37*
D17*
X4232500Y11005000D02*
X4232500Y5505000D01*
D13*
X3607500Y6630000D02*
X3607500Y6130000D01*
X607500Y5505000D02*
X232500Y5130000D01*
D10*
X1857500Y6630000D02*
X1857500Y6130000D01*
X982500Y6130000D01*
X982500Y6630000D01*
X1857500Y6630000D01*
G36*
X1857500Y6630000D02*
X1857500Y6130000D01*
X982500Y6130000D01*
X982500Y6630000D01*
X1857500Y6630000D01*
G37*
D13*
X1232500Y5505000D02*
X1232500Y5005000D01*
X3607500Y9130000D02*
X3607500Y8630000D01*
X3607500Y5505000D02*
X3607500Y5005000D01*
X3607500Y6130000D02*
X4107500Y6130000D01*
X1857500Y10755000D02*
X1857500Y5755000D01*
X1232500Y11005000D02*
X607500Y11005000D01*
D17*
X4232500Y11530000D02*
X4232500Y11005000D01*
D13*
X607500Y5505000D02*
X1232500Y5505000D01*
D17*
X4232500Y4980000D02*
X232500Y4980000D01*
D13*
X3607500Y9880000D02*
X4107500Y9880000D01*
X4107500Y9130000D02*
X3607500Y9130000D01*
D17*
X232500Y5130000D02*
X232500Y11380000D01*
D13*
X3607500Y7880000D02*
X3607500Y7380000D01*
X3607500Y10380000D02*
X3607500Y9880000D01*
X3607500Y5505000D02*
X4232500Y5505000D01*
X3607500Y11505000D02*
X3607500Y11005000D01*
D17*
X4232500Y5505000D02*
X4232500Y4980000D01*
D13*
X607500Y11005000D02*
X232500Y11380000D01*
X3607500Y11005000D02*
X4232500Y11005000D01*
X1232500Y11005000D02*
X1232500Y10755000D01*
X3607500Y8630000D02*
X4107500Y8630000D01*
D17*
X232500Y4980000D02*
X232500Y5130000D01*
D13*
X1232500Y5755000D02*
X1232500Y5505000D01*
D10*
X1857500Y10380000D02*
X1857500Y9880000D01*
X982500Y9880000D01*
X982500Y10380000D01*
X1857500Y10380000D01*
G36*
X1857500Y10380000D02*
X1857500Y9880000D01*
X982500Y9880000D01*
X982500Y10380000D01*
X1857500Y10380000D01*
G37*
D13*
X4107500Y6630000D02*
X3607500Y6630000D01*
X607500Y11005000D02*
X607500Y5505000D01*
D17*
X232500Y11530000D02*
X4232500Y11530000D01*
D10*
X1857500Y7880000D02*
X1857500Y7380000D01*
X982500Y7380000D01*
X982500Y7880000D01*
X1857500Y7880000D01*
G36*
X1857500Y7880000D02*
X1857500Y7380000D01*
X982500Y7380000D01*
X982500Y7880000D01*
X1857500Y7880000D01*
G37*
D13*
X1232500Y5755000D02*
X1857500Y5755000D01*
X1232500Y10755000D02*
X1857500Y10755000D01*
X3607500Y7380000D02*
X4107500Y7380000D01*
D17*
X232500Y11380000D02*
X232500Y11530000D01*
D11*
X5572500Y13653750D02*
X5222500Y13653750D01*
X5572500Y14603750D02*
X5222500Y14603750D01*
D17*
X26530000Y3447500D02*
X26530000Y4172500D01*
X21730000Y4172500D02*
X21730000Y3447500D01*
D12*
X38036500Y5778500D02*
X38036500Y11366500D01*
X34988500Y11366500D01*
X34988500Y5778500D01*
X38036500Y5778500D01*
D11*
X6510000Y2682500D02*
X6510000Y3032500D01*
X7460000Y2682500D02*
X7460000Y3032500D01*
D12*
X29781500Y5778500D02*
X29781500Y11366500D01*
X26733500Y11366500D01*
X26733500Y5778500D01*
X29781500Y5778500D01*
D17*
X34785000Y3447500D02*
X34785000Y4172500D01*
X29985000Y4172500D02*
X29985000Y3447500D01*
X34785000Y11067500D02*
X34785000Y11792500D01*
X29985000Y11792500D02*
X29985000Y11067500D01*
D10*
X52121250Y14305000D02*
X51701250Y14305000D01*
X51701250Y14105000D01*
X52121250Y14105000D01*
X52121250Y14305000D01*
G36*
X52121250Y14305000D02*
X51701250Y14305000D01*
X51701250Y14105000D01*
X52121250Y14105000D01*
X52121250Y14305000D01*
G37*
X53281250Y15665000D02*
X53081250Y15665000D01*
X53081250Y16085000D01*
X53281250Y16085000D01*
X53281250Y15665000D01*
G36*
X53281250Y15665000D02*
X53081250Y15665000D01*
X53081250Y16085000D01*
X53281250Y16085000D01*
X53281250Y15665000D01*
G37*
X53681250Y15665000D02*
X53481250Y15665000D01*
X53481250Y16085000D01*
X53681250Y16085000D01*
X53681250Y15665000D01*
G36*
X53681250Y15665000D02*
X53481250Y15665000D01*
X53481250Y16085000D01*
X53681250Y16085000D01*
X53681250Y15665000D01*
G37*
X54241250Y15105000D02*
X54661250Y15105000D01*
X54661250Y14905000D01*
X54241250Y14905000D01*
X54241250Y15105000D01*
G36*
X54241250Y15105000D02*
X54661250Y15105000D01*
X54661250Y14905000D01*
X54241250Y14905000D01*
X54241250Y15105000D01*
G37*
X53281250Y13545000D02*
X53081250Y13545000D01*
X53081250Y13125000D01*
X53281250Y13125000D01*
X53281250Y13545000D01*
G36*
X53281250Y13545000D02*
X53081250Y13545000D01*
X53081250Y13125000D01*
X53281250Y13125000D01*
X53281250Y13545000D01*
G37*
X53816250Y15452000D02*
X52546250Y15452000D01*
G03*
X52334250Y15240000I0J212000D01*
G01*
X52334250Y13970000D01*
G03*
X52546250Y13758000I212000J0D01*
G01*
X53816250Y13758000D01*
G03*
X54028250Y13970000I0J212000D01*
G01*
X54028250Y15070000D01*
X53813250Y15070000D01*
G02*
X53646250Y14903000I167000J0D01*
G01*
G02*
X53479250Y15070000I0J167000D01*
G01*
G02*
X53646250Y15237000I167000J0D01*
G01*
G02*
X53813250Y15070000I0J167000D01*
G01*
X54028250Y15070000D01*
X54028250Y15240000D01*
G03*
X53816250Y15452000I212000J0D01*
G01*
G36*
X53816250Y15452000D02*
X52546250Y15452000D01*
G03*
X52334250Y15240000I0J212000D01*
G01*
X52334250Y13970000D01*
G03*
X52546250Y13758000I212000J0D01*
G01*
X53816250Y13758000D01*
G03*
X54028250Y13970000I0J212000D01*
G01*
X54028250Y15070000D01*
X53813250Y15070000D01*
G02*
X53646250Y14903000I167000J0D01*
G01*
G02*
X53479250Y15070000I0J167000D01*
G01*
G02*
X53646250Y15237000I167000J0D01*
G01*
G02*
X53813250Y15070000I0J167000D01*
G01*
X54028250Y15070000D01*
X54028250Y15240000D01*
G03*
X53816250Y15452000I212000J0D01*
G01*
G37*
X52121250Y15105000D02*
X51701250Y15105000D01*
X51701250Y14905000D01*
X52121250Y14905000D01*
X52121250Y15105000D01*
G36*
X52121250Y15105000D02*
X51701250Y15105000D01*
X51701250Y14905000D01*
X52121250Y14905000D01*
X52121250Y15105000D01*
G37*
X52881250Y15665000D02*
X52681250Y15665000D01*
X52681250Y16085000D01*
X52881250Y16085000D01*
X52881250Y15665000D01*
G36*
X52881250Y15665000D02*
X52681250Y15665000D01*
X52681250Y16085000D01*
X52881250Y16085000D01*
X52881250Y15665000D01*
G37*
X54241250Y14705000D02*
X54661250Y14705000D01*
X54661250Y14505000D01*
X54241250Y14505000D01*
X54241250Y14705000D01*
G36*
X54241250Y14705000D02*
X54661250Y14705000D01*
X54661250Y14505000D01*
X54241250Y14505000D01*
X54241250Y14705000D01*
G37*
X53681250Y13545000D02*
X53481250Y13545000D01*
X53481250Y13125000D01*
X53681250Y13125000D01*
X53681250Y13545000D01*
G36*
X53681250Y13545000D02*
X53481250Y13545000D01*
X53481250Y13125000D01*
X53681250Y13125000D01*
X53681250Y13545000D01*
G37*
X54241250Y14305000D02*
X54661250Y14305000D01*
X54661250Y14105000D01*
X54241250Y14105000D01*
X54241250Y14305000D01*
G36*
X54241250Y14305000D02*
X54661250Y14305000D01*
X54661250Y14105000D01*
X54241250Y14105000D01*
X54241250Y14305000D01*
G37*
X52881250Y13545000D02*
X52681250Y13545000D01*
X52681250Y13125000D01*
X52881250Y13125000D01*
X52881250Y13545000D01*
G36*
X52881250Y13545000D02*
X52681250Y13545000D01*
X52681250Y13125000D01*
X52881250Y13125000D01*
X52881250Y13545000D01*
G37*
X52121250Y14705000D02*
X51701250Y14705000D01*
X51701250Y14505000D01*
X52121250Y14505000D01*
X52121250Y14705000D01*
G36*
X52121250Y14705000D02*
X51701250Y14705000D01*
X51701250Y14505000D01*
X52121250Y14505000D01*
X52121250Y14705000D01*
G37*
D18*
X51398750Y14845000D02*
X51398750Y15845000D01*
X51065417Y15130556D01*
X50732083Y15845000D01*
X50732083Y14845000D01*
X49855416Y14845000D02*
X49855416Y15368333D01*
X49903194Y15463889D01*
X49998750Y15511667D01*
X50188750Y15511667D01*
X50284305Y15463889D01*
X49855416Y14892778D02*
X49950972Y14845000D01*
X50188750Y14845000D01*
X50284305Y14892778D01*
X50332083Y14988333D01*
X50332083Y15082778D01*
X50284305Y15178333D01*
X50188750Y15226111D01*
X49950972Y15226111D01*
X49855416Y15273889D01*
X48978749Y14845000D02*
X48978749Y15845000D01*
X48978749Y14892778D02*
X49074305Y14845000D01*
X49265416Y14845000D01*
X49359860Y14892778D01*
X49407638Y14940556D01*
X49455416Y15035000D01*
X49455416Y15321667D01*
X49407638Y15416111D01*
X49359860Y15463889D01*
X49265416Y15511667D01*
X49074305Y15511667D01*
X48978749Y15463889D01*
X48149860Y14892778D02*
X48245416Y14845000D01*
X48435416Y14845000D01*
X48530971Y14892778D01*
X48578749Y14988333D01*
X48578749Y15368333D01*
X48530971Y15463889D01*
X48435416Y15511667D01*
X48245416Y15511667D01*
X48149860Y15463889D01*
X48102082Y15368333D01*
X48102082Y15273889D01*
X48578749Y15178333D01*
X46902083Y15845000D02*
X46664305Y14845000D01*
X46473194Y15559444D01*
X46283194Y14845000D01*
X46045416Y15845000D01*
X45597638Y14845000D02*
X45597638Y15511667D01*
X45597638Y15845000D02*
X45645416Y15797222D01*
X45597638Y15749444D01*
X45549860Y15797222D01*
X45597638Y15845000D01*
X45597638Y15749444D01*
X45149860Y15511667D02*
X44768749Y15511667D01*
X45006527Y15845000D02*
X45006527Y14988333D01*
X44959860Y14892778D01*
X44864304Y14845000D01*
X44768749Y14845000D01*
X44368749Y14845000D02*
X44368749Y15845000D01*
X43939860Y14845000D02*
X43939860Y15368333D01*
X43987638Y15463889D01*
X44083193Y15511667D01*
X44225416Y15511667D01*
X44320971Y15463889D01*
X44368749Y15416111D01*
X50922083Y13365000D02*
X51398750Y13365000D01*
X51398750Y14365000D01*
X50474305Y13365000D02*
X50474305Y14031667D01*
X50474305Y14365000D02*
X50522083Y14317222D01*
X50474305Y14269444D01*
X50426527Y14317222D01*
X50474305Y14365000D01*
X50474305Y14269444D01*
X50026527Y13365000D02*
X50026527Y14365000D01*
X50026527Y13983889D02*
X49930971Y14031667D01*
X49740971Y14031667D01*
X49645416Y13983889D01*
X49597638Y13936111D01*
X49549860Y13841667D01*
X49549860Y13555000D01*
X49597638Y13460556D01*
X49645416Y13412778D01*
X49740971Y13365000D01*
X49930971Y13365000D01*
X50026527Y13412778D01*
X49149860Y13365000D02*
X49149860Y14031667D01*
X49149860Y13841667D02*
X49102082Y13936111D01*
X49054304Y13983889D01*
X48959860Y14031667D01*
X48864304Y14031667D01*
X48035415Y13412778D02*
X48130971Y13365000D01*
X48320971Y13365000D01*
X48416526Y13412778D01*
X48464304Y13508333D01*
X48464304Y13888333D01*
X48416526Y13983889D01*
X48320971Y14031667D01*
X48130971Y14031667D01*
X48035415Y13983889D01*
X47987637Y13888333D01*
X47987637Y13793889D01*
X48464304Y13698333D01*
X47587637Y13365000D02*
X47587637Y14365000D01*
X47206526Y14365000D01*
X47110970Y14317222D01*
X47064304Y14269444D01*
X47016526Y14175000D01*
X47016526Y14031667D01*
X47064304Y13936111D01*
X47110970Y13888333D01*
X47206526Y13841667D01*
X47587637Y13841667D01*
X45997637Y13460556D02*
X46045415Y13412778D01*
X46187637Y13365000D01*
X46283193Y13365000D01*
X46426526Y13412778D01*
X46520970Y13508333D01*
X46568748Y13602778D01*
X46616526Y13793889D01*
X46616526Y13936111D01*
X46568748Y14127222D01*
X46520970Y14221667D01*
X46426526Y14317222D01*
X46283193Y14365000D01*
X46187637Y14365000D01*
X46045415Y14317222D01*
X45997637Y14269444D01*
X45264304Y13888333D02*
X45120970Y13841667D01*
X45074304Y13793889D01*
X45026526Y13698333D01*
X45026526Y13555000D01*
X45074304Y13460556D01*
X45120970Y13412778D01*
X45216526Y13365000D01*
X45597637Y13365000D01*
X45597637Y14365000D01*
X45264304Y14365000D01*
X45168748Y14317222D01*
X45120970Y14269444D01*
X45074304Y14175000D01*
X45074304Y14079444D01*
X45120970Y13983889D01*
X45168748Y13936111D01*
X45264304Y13888333D01*
X45597637Y13888333D01*
X5555833Y3175000D02*
X6032500Y3175000D01*
X6032500Y4175000D01*
%LPC*%
D19*
X7558750Y15557500D03*
X5458750Y15557500D03*
D20*
X8967500Y15557500D03*
X10717500Y15557500D03*
D21*
X15138400Y952500D03*
X8991600Y2222500D03*
X8991600Y952500D03*
X15138400Y3492500D03*
X8991600Y3492500D03*
X8991600Y4762500D03*
X15138400Y4762500D03*
X15138400Y2222500D03*
D20*
X13998334Y9207500D03*
X12248334Y9207500D03*
D22*
X3175000Y1587500D03*
D23*
X10001250Y11416250D03*
X10001250Y7316250D03*
D24*
X53022500Y10602500D03*
X53022500Y6532500D03*
D25*
X49987200Y2857500D03*
X45262800Y2857500D03*
D20*
X17861250Y15557500D03*
X16111250Y15557500D03*
D26*
X44767500Y8572500D03*
D20*
X20877500Y15557500D03*
X19127500Y15557500D03*
D27*
X38735000Y10367500D03*
X42545000Y10367500D03*
D28*
X40640000Y14017500D03*
D27*
X41275000Y10367500D03*
X40005000Y10367500D03*
D19*
X1172500Y15557500D03*
X3272500Y15557500D03*
D29*
X20002500Y1982500D03*
X20002500Y3732500D03*
D30*
X56197500Y1587500D03*
D27*
X38735000Y2747500D03*
X42545000Y2747500D03*
D28*
X40640000Y6397500D03*
D27*
X41275000Y2747500D03*
X40005000Y2747500D03*
D30*
X56197500Y14922500D03*
D27*
X22225000Y10367500D03*
X26035000Y10367500D03*
D28*
X24130000Y14017500D03*
D27*
X24765000Y10367500D03*
X23495000Y10367500D03*
D31*
X12379166Y6667500D03*
X14079166Y6667500D03*
D32*
X5357500Y8880000D03*
X5357500Y7630000D03*
D33*
X2232500Y12630000D03*
X2232500Y3880000D03*
D32*
X5357500Y10130000D03*
X5357500Y6380000D03*
D20*
X4522500Y14128750D03*
X6272500Y14128750D03*
D31*
X12379166Y7937500D03*
X14079166Y7937500D03*
D27*
X22225000Y2747500D03*
X26035000Y2747500D03*
D28*
X24130000Y6397500D03*
D27*
X24765000Y2747500D03*
X23495000Y2747500D03*
D26*
X36512500Y8572500D03*
D34*
X16986250Y3707500D03*
X16986250Y2007500D03*
D29*
X6985000Y3732500D03*
X6985000Y1982500D03*
D26*
X28257500Y8572500D03*
D31*
X20693750Y10636250D03*
X18993750Y10636250D03*
D27*
X30480000Y2747500D03*
X34290000Y2747500D03*
D28*
X32385000Y6397500D03*
D27*
X33020000Y2747500D03*
X31750000Y2747500D03*
X30480000Y10367500D03*
X34290000Y10367500D03*
D28*
X32385000Y14017500D03*
D27*
X33020000Y10367500D03*
X31750000Y10367500D03*
D35*
X56197500Y5715000D03*
D36*
X56197500Y10795000D03*
D37*
X48895000Y10795000D03*
X47625000Y10795000D03*
X47625000Y12065000D03*
X48895000Y12065000D03*
X44132500Y13970000D03*
X10953750Y2857500D03*
X27622500Y13970000D03*
X35877500Y13970000D03*
G04 --- BOARD END --- *
%TF.MD5,53ad538e7720b20ccd4f6de9f7f25ce7*%
M02*
