G04 --- HEADER BEGIN --- *
%TF.GenerationSoftware,LibrePCB,LibrePCB,0.1.1-unstable*%
%TF.CreationDate,2019-06-09T12:53:25*%
%TF.ProjectId,Brushless Controller - default,345039e0-aa20-4574-aecf-6ad16ab42204,v1*%
%TF.Part,Single*%
%FSLAX66Y66*%
%MOMM*%
G01*
G74*
G04 --- HEADER END --- *
G04 --- APERTURE LIST BEGIN --- *
%ADD10R,1.4X1.4*%
%ADD11R,1.15X1.05*%
%ADD12R,2.232X0.8604*%
%ADD13R,5.28X2.0288*%
%ADD14R,2.6X2.4*%
%ADD15R,2.36X1.98*%
%ADD16R,3.4X5.2*%
%ADD17R,2.74X5.28*%
%ADD18R,0.9X1.6*%
%ADD19R,5.2X4.5*%
%ADD20R,1.05X1.15*%
%ADD21P,2.74X8X22.5*%
%ADD22R,1.3X1.2*%
%ADD23R,2.2X1.0*%
%ADD24R,3.2X2.3*%
%ADD25R,1.2X1.3*%
%ADD26P,2.74X8X292.5*%
%ADD27C,2.74*%
%ADD28C,1.2*%
G04 --- APERTURE LIST END --- *
G04 --- BOARD BEGIN --- *
D10*
X7558750Y15557500D03*
X5458750Y15557500D03*
D11*
X8967500Y15557500D03*
X10717500Y15557500D03*
D12*
X15138400Y952500D03*
X8991600Y2222500D03*
X8991600Y952500D03*
X15138400Y3492500D03*
X8991600Y3492500D03*
X8991600Y4762500D03*
X15138400Y4762500D03*
X15138400Y2222500D03*
D11*
X13998334Y9207500D03*
X12248334Y9207500D03*
D13*
X3175000Y1587500D03*
D14*
X10001250Y11416250D03*
X10001250Y7316250D03*
D15*
X53022500Y10602500D03*
X53022500Y6532500D03*
D16*
X49987200Y2857500D03*
X45262800Y2857500D03*
D11*
X17861250Y15557500D03*
X16111250Y15557500D03*
D17*
X44767500Y8572500D03*
D11*
X20877500Y15557500D03*
X19127500Y15557500D03*
D18*
X38735000Y10367500D03*
X42545000Y10367500D03*
D19*
X40640000Y14017500D03*
D18*
X41275000Y10367500D03*
X40005000Y10367500D03*
D10*
X1172500Y15557500D03*
X3272500Y15557500D03*
D20*
X20002500Y1982500D03*
X20002500Y3732500D03*
D21*
X56197500Y1587500D03*
D18*
X38735000Y2747500D03*
X42545000Y2747500D03*
D19*
X40640000Y6397500D03*
D18*
X41275000Y2747500D03*
X40005000Y2747500D03*
D21*
X56197500Y14922500D03*
D18*
X22225000Y10367500D03*
X26035000Y10367500D03*
D19*
X24130000Y14017500D03*
D18*
X24765000Y10367500D03*
X23495000Y10367500D03*
D22*
X12379166Y6667500D03*
X14079166Y6667500D03*
D23*
X5357500Y8880000D03*
X5357500Y7630000D03*
D24*
X2232500Y12630000D03*
X2232500Y3880000D03*
D23*
X5357500Y10130000D03*
X5357500Y6380000D03*
D11*
X4522500Y14128750D03*
X6272500Y14128750D03*
D22*
X12379166Y7937500D03*
X14079166Y7937500D03*
D18*
X22225000Y2747500D03*
X26035000Y2747500D03*
D19*
X24130000Y6397500D03*
D18*
X24765000Y2747500D03*
X23495000Y2747500D03*
D17*
X36512500Y8572500D03*
D25*
X16986250Y3707500D03*
X16986250Y2007500D03*
D20*
X6985000Y3732500D03*
X6985000Y1982500D03*
D17*
X28257500Y8572500D03*
D22*
X20693750Y10636250D03*
X18993750Y10636250D03*
D18*
X30480000Y2747500D03*
X34290000Y2747500D03*
D19*
X32385000Y6397500D03*
D18*
X33020000Y2747500D03*
X31750000Y2747500D03*
X30480000Y10367500D03*
X34290000Y10367500D03*
D19*
X32385000Y14017500D03*
D18*
X33020000Y10367500D03*
X31750000Y10367500D03*
D26*
X56197500Y5715000D03*
D27*
X56197500Y10795000D03*
D28*
X48895000Y10795000D03*
X47625000Y10795000D03*
X47625000Y12065000D03*
X48895000Y12065000D03*
X44132500Y13970000D03*
X10953750Y2857500D03*
X27622500Y13970000D03*
X35877500Y13970000D03*
G04 --- BOARD END --- *
%TF.MD5,37ba848b8971f888f46c13e7293c1784*%
M02*
