G04 --- HEADER BEGIN --- *
%TF.GenerationSoftware,LibrePCB,LibrePCB,0.1.1-unstable*%
%TF.CreationDate,2019-06-09T12:53:25*%
%TF.ProjectId,Brushless Controller - default,345039e0-aa20-4574-aecf-6ad16ab42204,v1*%
%TF.Part,Single*%
%FSLAX66Y66*%
%MOMM*%
G01*
G74*
G04 --- HEADER END --- *
G04 --- APERTURE LIST BEGIN --- *
%ADD10C,0.15*%
%ADD11C,0.1524*%
%ADD12C,0.2032*%
%ADD13C,0.0508*%
%ADD14C,0.9144X0.6096*%
%ADD15C,0.0*%
%ADD16C,0.254*%
%ADD17C,1.454X0.946*%
%ADD18C,10.3124X10.0076*%
%ADD19C,0.2*%
%ADD20R,1.2X1.3*%
%ADD21R,1.3X1.2*%
%ADD22R,1.05X1.15*%
%ADD23R,1.2X1.6*%
%ADD24R,2.15X2.7*%
%ADD25R,1.15X1.05*%
%ADD26R,2.4X3.8*%
%ADD27R,2.435X1.419*%
%ADD28R,0.8604X2.232*%
%ADD29R,1.2X1.2*%
%ADD30P,2.74X8X22.5*%
%ADD31R,5.28X2.0288*%
%ADD32R,3.2X2.3*%
%ADD33R,2.2X1.0*%
%ADD34R,1.2X0.4*%
%ADD35R,0.4X1.2*%
%ADD36P,2.74X8X292.5*%
%ADD37C,2.74*%
%ADD38C,1.2*%
G04 --- APERTURE LIST END --- *
G04 --- BOARD BEGIN --- *
D10*
X30320000Y7286250D02*
X30320000Y7636250D01*
X29370000Y7286250D02*
X29370000Y7636250D01*
D11*
X36677600Y11722100D02*
X36677600Y12534900D01*
X39522400Y12534900D02*
X39522400Y11722100D01*
X39522400Y11722100D02*
X38963600Y11722100D01*
X37236400Y11722100D02*
X36677600Y11722100D01*
D10*
X23035000Y4285000D02*
X22685000Y4285000D01*
X23035000Y3335000D02*
X22685000Y3335000D01*
D12*
X51943000Y10262000D02*
X48387000Y10262000D01*
X48387000Y3708000D01*
X51943000Y3708000D01*
X51943000Y10262000D01*
D10*
X20638750Y11287500D02*
X20638750Y10937500D01*
X21588750Y11287500D02*
X21588750Y10937500D01*
D11*
X44767500Y7429500D02*
X44767500Y10985500D01*
X39941500Y11239500D02*
G03*
X39687500Y10985500I0J254000D01*
G01*
D13*
X44767500Y10807700D02*
X39687500Y10807700D01*
D11*
X41084500Y7175500D02*
X40830500Y7175500D01*
X39687500Y7429500D02*
X39687500Y10985500D01*
X43624500Y11239500D02*
X43370500Y11239500D01*
X43624500Y7175500D02*
X43370500Y7175500D01*
X39941500Y7175500D02*
G02*
X39687500Y7429500I0J254000D01*
G01*
X44767500Y10985500D02*
G03*
X44513500Y11239500I254000J0D01*
G01*
X44767500Y7429500D02*
G02*
X44513500Y7175500I254000J0D01*
G01*
X42354500Y7175500D02*
X42100500Y7175500D01*
X42354500Y11239500D02*
X42100500Y11239500D01*
X41084500Y11239500D02*
X40830500Y11239500D01*
D14*
X40449500Y8191500D03*
D11*
X57721500Y2222500D02*
X57721500Y952500D01*
X56832500Y63500D02*
X57721500Y952500D01*
X55562500Y3111500D02*
X56832500Y3111500D01*
X55562500Y63500D02*
X54673500Y952500D01*
X54673500Y2222500D02*
X55562500Y3111500D01*
X56832500Y63500D02*
X55562500Y63500D01*
X56832500Y3111500D02*
X57721500Y2222500D01*
X54673500Y2222500D02*
X54673500Y952500D01*
D10*
X39545000Y3015000D02*
X39195000Y3015000D01*
X39545000Y2065000D02*
X39195000Y2065000D01*
D11*
X57721500Y15557500D02*
X57721500Y14287500D01*
X56832500Y13398500D02*
X57721500Y14287500D01*
X55562500Y16446500D02*
X56832500Y16446500D01*
X55562500Y13398500D02*
X54673500Y14287500D01*
X54673500Y15557500D02*
X55562500Y16446500D01*
X56832500Y13398500D02*
X55562500Y13398500D01*
X56832500Y16446500D02*
X57721500Y15557500D01*
X54673500Y15557500D02*
X54673500Y14287500D01*
X5969000Y419100D02*
X381000Y419100D01*
X381000Y2755900D01*
X5969000Y2755900D01*
X5969000Y419100D01*
D13*
X3607500Y11150000D02*
X3607500Y11650000D01*
X1857500Y5775000D02*
X1857500Y13275000D01*
X3607500Y5525000D02*
X4232500Y5525000D01*
X3607500Y11650000D02*
X4107500Y11650000D01*
X3607500Y13525000D02*
X4232500Y13525000D01*
X1232500Y5775000D02*
X1857500Y5775000D01*
X3607500Y6150000D02*
X3607500Y6650000D01*
D12*
X4232500Y5000000D02*
X4232500Y5525000D01*
D13*
X4107500Y12400000D02*
X3607500Y12400000D01*
X1232500Y13525000D02*
X1232500Y14025000D01*
D12*
X4232500Y13525000D02*
X4232500Y14050000D01*
X232500Y14050000D02*
X232500Y13900000D01*
D15*
X1857500Y6150000D02*
X1857500Y6650000D01*
X982500Y6650000D01*
X982500Y6150000D01*
X1857500Y6150000D01*
G36*
X1857500Y6150000D02*
X1857500Y6650000D01*
X982500Y6650000D01*
X982500Y6150000D01*
X1857500Y6150000D01*
G37*
D13*
X4107500Y6150000D02*
X3607500Y6150000D01*
X607500Y13525000D02*
X1232500Y13525000D01*
D15*
X1857500Y12400000D02*
X1857500Y12900000D01*
X982500Y12900000D01*
X982500Y12400000D01*
X1857500Y12400000D01*
G36*
X1857500Y12400000D02*
X1857500Y12900000D01*
X982500Y12900000D01*
X982500Y12400000D01*
X1857500Y12400000D01*
G37*
D13*
X607500Y13525000D02*
X232500Y13900000D01*
D15*
X1857500Y8650000D02*
X1857500Y9150000D01*
X982500Y9150000D01*
X982500Y8650000D01*
X1857500Y8650000D01*
G36*
X1857500Y8650000D02*
X1857500Y9150000D01*
X982500Y9150000D01*
X982500Y8650000D01*
X1857500Y8650000D01*
G37*
D13*
X1232500Y13275000D02*
X1232500Y13525000D01*
D15*
X1857500Y11150000D02*
X1857500Y11650000D01*
X982500Y11650000D01*
X982500Y11150000D01*
X1857500Y11150000D01*
G36*
X1857500Y11150000D02*
X1857500Y11650000D01*
X982500Y11650000D01*
X982500Y11150000D01*
X1857500Y11150000D01*
G37*
D13*
X3607500Y6650000D02*
X4107500Y6650000D01*
D15*
X1857500Y7400000D02*
X1857500Y7900000D01*
X982500Y7900000D01*
X982500Y7400000D01*
X1857500Y7400000D01*
G36*
X1857500Y7400000D02*
X1857500Y7900000D01*
X982500Y7900000D01*
X982500Y7400000D01*
X1857500Y7400000D01*
G37*
D13*
X3607500Y7900000D02*
X4107500Y7900000D01*
X3607500Y13525000D02*
X3607500Y14025000D01*
X3607500Y8650000D02*
X3607500Y9150000D01*
X607500Y5525000D02*
X232500Y5150000D01*
X1232500Y5525000D02*
X1232500Y5775000D01*
D12*
X4232500Y5525000D02*
X4232500Y13525000D01*
D13*
X1232500Y5025000D02*
X1232500Y5525000D01*
X3607500Y9150000D02*
X4107500Y9150000D01*
X3607500Y7400000D02*
X3607500Y7900000D01*
D12*
X232500Y5000000D02*
X4232500Y5000000D01*
D13*
X3607500Y10400000D02*
X4107500Y10400000D01*
X4107500Y7400000D02*
X3607500Y7400000D01*
D12*
X232500Y13900000D02*
X232500Y5150000D01*
D13*
X3607500Y5025000D02*
X3607500Y5525000D01*
X607500Y5525000D02*
X607500Y13525000D01*
X3607500Y12900000D02*
X4107500Y12900000D01*
D15*
X1857500Y9900000D02*
X1857500Y10400000D01*
X982500Y10400000D01*
X982500Y9900000D01*
X1857500Y9900000D01*
G36*
X1857500Y9900000D02*
X1857500Y10400000D01*
X982500Y10400000D01*
X982500Y9900000D01*
X1857500Y9900000D01*
G37*
D13*
X4107500Y8650000D02*
X3607500Y8650000D01*
X1232500Y5525000D02*
X607500Y5525000D01*
X4107500Y9900000D02*
X3607500Y9900000D01*
X1232500Y13275000D02*
X1857500Y13275000D01*
D12*
X4232500Y14050000D02*
X232500Y14050000D01*
D13*
X3607500Y9900000D02*
X3607500Y10400000D01*
X3607500Y12400000D02*
X3607500Y12900000D01*
X4107500Y11150000D02*
X3607500Y11150000D01*
D12*
X232500Y5150000D02*
X232500Y5000000D01*
D11*
X36512500Y7429500D02*
X36512500Y10985500D01*
X31686500Y11239500D02*
G03*
X31432500Y10985500I0J254000D01*
G01*
D13*
X36512500Y10807700D02*
X31432500Y10807700D01*
D11*
X32829500Y7175500D02*
X32575500Y7175500D01*
X31432500Y7429500D02*
X31432500Y10985500D01*
X35369500Y11239500D02*
X35115500Y11239500D01*
X35369500Y7175500D02*
X35115500Y7175500D01*
X31686500Y7175500D02*
G02*
X31432500Y7429500I0J254000D01*
G01*
X36512500Y10985500D02*
G03*
X36258500Y11239500I254000J0D01*
G01*
X36512500Y7429500D02*
G02*
X36258500Y7175500I254000J0D01*
G01*
X34099500Y7175500D02*
X33845500Y7175500D01*
X34099500Y11239500D02*
X33845500Y11239500D01*
X32829500Y11239500D02*
X32575500Y11239500D01*
D14*
X32194500Y8191500D03*
D16*
X10870000Y11947500D02*
X17070000Y11947500D01*
X17070000Y11947500D02*
X17345000Y11672500D01*
X17070000Y5197500D02*
X10870000Y5197500D01*
X10595000Y11672500D02*
X10870000Y11947500D01*
X10595000Y5472500D02*
X10595000Y11672500D01*
X10870000Y5197500D02*
X10595000Y5472500D01*
X17345000Y11672500D02*
X17345000Y5472500D01*
X17345000Y5472500D02*
X17070000Y5197500D01*
D17*
X11970000Y10572500D03*
D11*
X28422600Y11722100D02*
X28422600Y12534900D01*
X31267400Y12534900D02*
X31267400Y11722100D01*
X31267400Y11722100D02*
X30708600Y11722100D01*
X28981400Y11722100D02*
X28422600Y11722100D01*
D10*
X22858750Y8080000D02*
X22858750Y8430000D01*
X21908750Y8080000D02*
X21908750Y8430000D01*
X31290000Y3015000D02*
X30940000Y3015000D01*
X31290000Y2065000D02*
X30940000Y2065000D01*
X31290000Y4285000D02*
X30940000Y4285000D01*
X31290000Y3335000D02*
X30940000Y3335000D01*
X18398750Y3017500D02*
X18748750Y3017500D01*
X18398750Y3967500D02*
X18748750Y3967500D01*
X17763750Y1747500D02*
X18113750Y1747500D01*
X17763750Y2697500D02*
X18113750Y2697500D01*
D11*
X44932600Y11722100D02*
X44932600Y12534900D01*
X47777400Y12534900D02*
X47777400Y11722100D01*
X47777400Y11722100D02*
X47218600Y11722100D01*
X45491400Y11722100D02*
X44932600Y11722100D01*
D10*
X21923750Y6190000D02*
X21573750Y6190000D01*
X21923750Y5240000D02*
X21573750Y5240000D01*
D11*
X28257500Y7429500D02*
X28257500Y10985500D01*
X23431500Y11239500D02*
G03*
X23177500Y10985500I0J254000D01*
G01*
D13*
X28257500Y10807700D02*
X23177500Y10807700D01*
D11*
X24574500Y7175500D02*
X24320500Y7175500D01*
X23177500Y7429500D02*
X23177500Y10985500D01*
X27114500Y11239500D02*
X26860500Y11239500D01*
X27114500Y7175500D02*
X26860500Y7175500D01*
X23431500Y7175500D02*
G02*
X23177500Y7429500I0J254000D01*
G01*
X28257500Y10985500D02*
G03*
X28003500Y11239500I254000J0D01*
G01*
X28257500Y7429500D02*
G02*
X28003500Y7175500I254000J0D01*
G01*
X25844500Y7175500D02*
X25590500Y7175500D01*
X25844500Y11239500D02*
X25590500Y11239500D01*
X24574500Y11239500D02*
X24320500Y11239500D01*
D14*
X23939500Y8191500D03*
D10*
X38575000Y7286250D02*
X38575000Y7636250D01*
X37625000Y7286250D02*
X37625000Y7636250D01*
X39545000Y4285000D02*
X39195000Y4285000D01*
X39545000Y3335000D02*
X39195000Y3335000D01*
D11*
X56197500Y7620000D02*
X56197500Y7112000D01*
X56197500Y9144000D02*
X55054500Y9144000D01*
X56197500Y9398000D02*
X56197500Y9144000D01*
X55054500Y9144000D02*
X55054500Y8509000D01*
X55054500Y8509000D02*
X57340500Y8509000D01*
X57467500Y11684000D02*
X57467500Y12446000D01*
X57340500Y8509000D02*
X57340500Y9144000D01*
X57340500Y9144000D02*
X56197500Y9144000D01*
D15*
X55054500Y8001000D02*
X55054500Y7366000D01*
X57340500Y7366000D01*
X57340500Y8001000D01*
X55054500Y8001000D01*
G36*
X55054500Y8001000D02*
X55054500Y7366000D01*
X57340500Y7366000D01*
X57340500Y8001000D01*
X55054500Y8001000D01*
G37*
D11*
X57848500Y12065000D02*
X57086500Y12065000D01*
D18*
X56197500Y8255000D03*
D19*
X5413333Y15445833D02*
X5556667Y15399167D01*
X5603333Y15351389D01*
X5651111Y15255833D01*
X5651111Y15112500D01*
X5603333Y15018056D01*
X5556667Y14970278D01*
X5461111Y14922500D01*
X5080000Y14922500D01*
X5080000Y15922500D01*
X5413333Y15922500D01*
X5508889Y15874722D01*
X5556667Y15826944D01*
X5603333Y15732500D01*
X5603333Y15636944D01*
X5556667Y15541389D01*
X5508889Y15493611D01*
X5413333Y15445833D01*
X5080000Y15445833D01*
X6051111Y14922500D02*
X6051111Y15589167D01*
X6051111Y15399167D02*
X6098889Y15493611D01*
X6146667Y15541389D01*
X6241111Y15589167D01*
X6336667Y15589167D01*
X7165556Y15589167D02*
X7165556Y14922500D01*
X6736667Y15589167D02*
X6736667Y15065833D01*
X6784445Y14970278D01*
X6880000Y14922500D01*
X7022223Y14922500D01*
X7117778Y14970278D01*
X7165556Y15018056D01*
X7565556Y14970278D02*
X7661112Y14922500D01*
X7851112Y14922500D01*
X7946667Y14970278D01*
X7994445Y15065833D01*
X7994445Y15112500D01*
X7946667Y15208056D01*
X7851112Y15255833D01*
X7708889Y15255833D01*
X7613334Y15303611D01*
X7565556Y15399167D01*
X7565556Y15445833D01*
X7613334Y15541389D01*
X7708889Y15589167D01*
X7851112Y15589167D01*
X7946667Y15541389D01*
X8394445Y14922500D02*
X8394445Y15922500D01*
X8823334Y14922500D02*
X8823334Y15445833D01*
X8775556Y15541389D01*
X8680001Y15589167D01*
X8537778Y15589167D01*
X8442223Y15541389D01*
X8394445Y15493611D01*
X9366667Y14922500D02*
X9271112Y14970278D01*
X9223334Y15065833D01*
X9223334Y15922500D01*
X10195556Y14970278D02*
X10100000Y14922500D01*
X9910000Y14922500D01*
X9814445Y14970278D01*
X9766667Y15065833D01*
X9766667Y15445833D01*
X9814445Y15541389D01*
X9910000Y15589167D01*
X10100000Y15589167D01*
X10195556Y15541389D01*
X10243334Y15445833D01*
X10243334Y15351389D01*
X9766667Y15255833D01*
X10643334Y14970278D02*
X10738890Y14922500D01*
X10928890Y14922500D01*
X11024445Y14970278D01*
X11072223Y15065833D01*
X11072223Y15112500D01*
X11024445Y15208056D01*
X10928890Y15255833D01*
X10786667Y15255833D01*
X10691112Y15303611D01*
X10643334Y15399167D01*
X10643334Y15445833D01*
X10691112Y15541389D01*
X10786667Y15589167D01*
X10928890Y15589167D01*
X11024445Y15541389D01*
X11472223Y14970278D02*
X11567779Y14922500D01*
X11757779Y14922500D01*
X11853334Y14970278D01*
X11901112Y15065833D01*
X11901112Y15112500D01*
X11853334Y15208056D01*
X11757779Y15255833D01*
X11615556Y15255833D01*
X11520001Y15303611D01*
X11472223Y15399167D01*
X11472223Y15445833D01*
X11520001Y15541389D01*
X11615556Y15589167D01*
X11757779Y15589167D01*
X11853334Y15541389D01*
X13720000Y15018056D02*
X13672222Y14970278D01*
X13530000Y14922500D01*
X13434444Y14922500D01*
X13291111Y14970278D01*
X13196667Y15065833D01*
X13148889Y15160278D01*
X13101111Y15351389D01*
X13101111Y15493611D01*
X13148889Y15684722D01*
X13196667Y15779167D01*
X13291111Y15874722D01*
X13434444Y15922500D01*
X13530000Y15922500D01*
X13672222Y15874722D01*
X13720000Y15826944D01*
X14310000Y14922500D02*
X14215556Y14970278D01*
X14167778Y15018056D01*
X14120000Y15112500D01*
X14120000Y15399167D01*
X14167778Y15493611D01*
X14215556Y15541389D01*
X14310000Y15589167D01*
X14453333Y15589167D01*
X14548889Y15541389D01*
X14596667Y15493611D01*
X14643333Y15399167D01*
X14643333Y15112500D01*
X14596667Y15018056D01*
X14548889Y14970278D01*
X14453333Y14922500D01*
X14310000Y14922500D01*
X15043333Y15589167D02*
X15043333Y14922500D01*
X15043333Y15493611D02*
X15091111Y15541389D01*
X15186666Y15589167D01*
X15328889Y15589167D01*
X15424444Y15541389D01*
X15472222Y15445833D01*
X15472222Y14922500D01*
X15872222Y15589167D02*
X16253333Y15589167D01*
X16015555Y15922500D02*
X16015555Y15065833D01*
X16062222Y14970278D01*
X16157778Y14922500D01*
X16253333Y14922500D01*
X16653333Y14922500D02*
X16653333Y15589167D01*
X16653333Y15399167D02*
X16701111Y15493611D01*
X16748889Y15541389D01*
X16843333Y15589167D01*
X16938889Y15589167D01*
X17528889Y14922500D02*
X17434445Y14970278D01*
X17386667Y15018056D01*
X17338889Y15112500D01*
X17338889Y15399167D01*
X17386667Y15493611D01*
X17434445Y15541389D01*
X17528889Y15589167D01*
X17672222Y15589167D01*
X17767778Y15541389D01*
X17815556Y15493611D01*
X17862222Y15399167D01*
X17862222Y15112500D01*
X17815556Y15018056D01*
X17767778Y14970278D01*
X17672222Y14922500D01*
X17528889Y14922500D01*
X18405555Y14922500D02*
X18310000Y14970278D01*
X18262222Y15065833D01*
X18262222Y15922500D01*
X18948888Y14922500D02*
X18853333Y14970278D01*
X18805555Y15065833D01*
X18805555Y15922500D01*
X19777777Y14970278D02*
X19682221Y14922500D01*
X19492221Y14922500D01*
X19396666Y14970278D01*
X19348888Y15065833D01*
X19348888Y15445833D01*
X19396666Y15541389D01*
X19492221Y15589167D01*
X19682221Y15589167D01*
X19777777Y15541389D01*
X19825555Y15445833D01*
X19825555Y15351389D01*
X19348888Y15255833D01*
X20225555Y14922500D02*
X20225555Y15589167D01*
X20225555Y15399167D02*
X20273333Y15493611D01*
X20321111Y15541389D01*
X20415555Y15589167D01*
X20511111Y15589167D01*
X21711110Y15589167D02*
X21948888Y14922500D01*
X22187777Y15589167D01*
X23158888Y14922500D02*
X22587777Y14922500D01*
X22873333Y14922500D02*
X22873333Y15922500D01*
X22777777Y15779167D01*
X22683333Y15684722D01*
X22587777Y15636944D01*
X5397500Y3175000D02*
X5397500Y4175000D01*
X5397500Y3698333D02*
X5968611Y3698333D01*
X5968611Y3175000D02*
X5968611Y4175000D01*
X53435528Y1047361D02*
X53387750Y952917D01*
X53387750Y809583D01*
X53435528Y666250D01*
X53531083Y571806D01*
X53625528Y524028D01*
X53816639Y476250D01*
X53958861Y476250D01*
X54149972Y524028D01*
X54244417Y571806D01*
X54339972Y666250D01*
X54387750Y809583D01*
X54387750Y905139D01*
X54339972Y1047361D01*
X54292194Y1095139D01*
X53958861Y1095139D01*
X53958861Y905139D01*
X54387750Y1495139D02*
X53387750Y1495139D01*
X54387750Y2066250D01*
X53387750Y2066250D01*
X54387750Y2466250D02*
X53387750Y2466250D01*
X53387750Y2704028D01*
X53435528Y2847361D01*
X53531083Y2942917D01*
X53625528Y2989583D01*
X53816639Y3037361D01*
X53958861Y3037361D01*
X54149972Y2989583D01*
X54244417Y2942917D01*
X54339972Y2847361D01*
X54387750Y2704028D01*
X54387750Y2466250D01*
X53229000Y13493750D02*
X54229000Y13827083D01*
X53229000Y14160417D01*
X54181222Y14560417D02*
X54229000Y14703750D01*
X54229000Y14941528D01*
X54181222Y15037084D01*
X54133444Y15083750D01*
X54039000Y15131528D01*
X53943444Y15131528D01*
X53847889Y15083750D01*
X53800111Y15037084D01*
X53752333Y14941528D01*
X53705667Y14750417D01*
X53657889Y14655973D01*
X53610111Y14608195D01*
X53514556Y14560417D01*
X53419000Y14560417D01*
X53324556Y14608195D01*
X53276778Y14655973D01*
X53229000Y14750417D01*
X53229000Y14989306D01*
X53276778Y15131528D01*
X54181222Y15531528D02*
X54229000Y15674861D01*
X54229000Y15912639D01*
X54181222Y16008195D01*
X54133444Y16054861D01*
X54039000Y16102639D01*
X53943444Y16102639D01*
X53847889Y16054861D01*
X53800111Y16008195D01*
X53752333Y15912639D01*
X53705667Y15721528D01*
X53657889Y15627084D01*
X53610111Y15579306D01*
X53514556Y15531528D01*
X53419000Y15531528D01*
X53324556Y15579306D01*
X53276778Y15627084D01*
X53229000Y15721528D01*
X53229000Y15960417D01*
X53276778Y16102639D01*
%LPC*%
D20*
X19843750Y10421250D03*
X19843750Y12121250D03*
D21*
X33757500Y3810000D03*
X35457500Y3810000D03*
X41060000Y14287500D03*
X42760000Y14287500D03*
D20*
X45720000Y2755000D03*
X45720000Y1055000D03*
D22*
X29845000Y8336250D03*
X29845000Y6586250D03*
D23*
X37150000Y13482500D03*
X38100000Y11282500D03*
X39050000Y13482500D03*
D21*
X32805000Y14287500D03*
X34505000Y14287500D03*
X7881250Y2540000D03*
X9581250Y2540000D03*
D24*
X51690000Y1587500D03*
X48640000Y1587500D03*
D21*
X12485000Y793750D03*
X14185000Y793750D03*
D25*
X21985000Y3810000D03*
X23735000Y3810000D03*
D21*
X51967500Y11430000D03*
X50267500Y11430000D03*
D26*
X53264000Y6985000D03*
D27*
X47066000Y4674000D03*
X47066000Y6985000D03*
X47066000Y9296000D03*
D22*
X21113750Y10237500D03*
X21113750Y11987500D03*
D21*
X7881250Y3810000D03*
X9581250Y3810000D03*
X24550000Y14287500D03*
X26250000Y14287500D03*
D28*
X40322500Y12280900D03*
X41592500Y6134100D03*
X40322500Y6134100D03*
X42862500Y12280900D03*
X42862500Y6134100D03*
X44132500Y6134100D03*
X44132500Y12280900D03*
X41592500Y12280900D03*
D21*
X13913750Y2222500D03*
X15613750Y2222500D03*
D29*
X17510000Y793750D03*
X15510000Y793750D03*
D30*
X56197500Y1587500D03*
D21*
X7881250Y13017500D03*
X9581250Y13017500D03*
D25*
X38495000Y2540000D03*
X40245000Y2540000D03*
D30*
X56197500Y14922500D03*
D21*
X7881250Y1270000D03*
X9581250Y1270000D03*
D31*
X3175000Y1587500D03*
D20*
X19843750Y8628750D03*
X19843750Y6928750D03*
D21*
X42012500Y3810000D03*
X43712500Y3810000D03*
X25502500Y3810000D03*
X27202500Y3810000D03*
D32*
X2232500Y15150000D03*
X2232500Y3900000D03*
D33*
X5357500Y7650000D03*
X5357500Y12650000D03*
X5357500Y10150000D03*
X5357500Y11400000D03*
X5357500Y8900000D03*
X5357500Y6400000D03*
D28*
X32067500Y12280900D03*
X33337500Y6134100D03*
X32067500Y6134100D03*
X34607500Y12280900D03*
X34607500Y6134100D03*
X35877500Y6134100D03*
X35877500Y12280900D03*
X33337500Y12280900D03*
D34*
X9470000Y10322500D03*
X9470000Y6322500D03*
X9470000Y6822500D03*
X18470000Y10322500D03*
D35*
X13220000Y13072500D03*
D34*
X18470000Y6822500D03*
X18470000Y11322500D03*
D35*
X16720000Y13072500D03*
D34*
X9470000Y9322500D03*
X9470000Y11322500D03*
D35*
X16720000Y4072500D03*
X12720000Y13072500D03*
D34*
X9470000Y7322500D03*
D35*
X12720000Y4072500D03*
X15220000Y4072500D03*
D34*
X18470000Y9822500D03*
X18470000Y7322500D03*
X18470000Y6322500D03*
D35*
X15720000Y4072500D03*
X14220000Y13072500D03*
X16220000Y4072500D03*
D34*
X18470000Y10822500D03*
D35*
X11220000Y4072500D03*
X14720000Y13072500D03*
D34*
X9470000Y9822500D03*
D35*
X13720000Y4072500D03*
X14220000Y4072500D03*
X16220000Y13072500D03*
D34*
X18470000Y8822500D03*
D35*
X11720000Y4072500D03*
D34*
X9470000Y5822500D03*
X9470000Y10822500D03*
D35*
X15720000Y13072500D03*
X12220000Y13072500D03*
X13220000Y4072500D03*
D34*
X18470000Y9322500D03*
X18470000Y8322500D03*
D35*
X14720000Y4072500D03*
D34*
X9470000Y8822500D03*
D35*
X11220000Y13072500D03*
D34*
X9470000Y7822500D03*
X18470000Y7822500D03*
D35*
X12220000Y4072500D03*
X11720000Y13072500D03*
X15220000Y13072500D03*
D34*
X18470000Y5822500D03*
X9470000Y8322500D03*
D35*
X13720000Y13072500D03*
D23*
X28895000Y13482500D03*
X29845000Y11282500D03*
X30795000Y13482500D03*
D22*
X22383750Y9130000D03*
X22383750Y7380000D03*
D25*
X30240000Y2540000D03*
X31990000Y2540000D03*
X30240000Y3810000D03*
X31990000Y3810000D03*
X19448750Y3492500D03*
X17698750Y3492500D03*
X18813750Y2222500D03*
X17063750Y2222500D03*
D23*
X45405000Y13482500D03*
X46355000Y11282500D03*
X47305000Y13482500D03*
D25*
X20873750Y5715000D03*
X22623750Y5715000D03*
D28*
X23812500Y12280900D03*
X25082500Y6134100D03*
X23812500Y6134100D03*
X26352500Y12280900D03*
X26352500Y6134100D03*
X27622500Y6134100D03*
X27622500Y12280900D03*
X25082500Y12280900D03*
D22*
X38100000Y8336250D03*
X38100000Y6586250D03*
D25*
X38495000Y3810000D03*
X40245000Y3810000D03*
D36*
X56197500Y5715000D03*
D37*
X56197500Y10795000D03*
D38*
X48895000Y10795000D03*
X47625000Y10795000D03*
X47625000Y12065000D03*
X48895000Y12065000D03*
X44132500Y13970000D03*
X10953750Y2857500D03*
X27622500Y13970000D03*
X35877500Y13970000D03*
G04 --- BOARD END --- *
%TF.MD5,2903259058a974c0bcf2ea831f44ead9*%
M02*
