G04 --- HEADER BEGIN --- *
%TF.GenerationSoftware,LibrePCB,LibrePCB,0.1.1-unstable*%
%TF.CreationDate,2019-06-09T12:53:25*%
%TF.ProjectId,Brushless Controller - default,345039e0-aa20-4574-aecf-6ad16ab42204,v1*%
%TF.Part,Single*%
%FSLAX66Y66*%
%MOMM*%
G01*
G74*
G04 --- HEADER END --- *
G04 --- APERTURE LIST BEGIN --- *
%ADD10R,1.2X1.3*%
%ADD11R,1.3X1.2*%
%ADD12R,1.05X1.15*%
%ADD13R,1.2X1.6*%
%ADD14R,2.15X2.7*%
%ADD15R,1.15X1.05*%
%ADD16R,2.4X3.8*%
%ADD17R,2.435X1.419*%
%ADD18R,0.8604X2.232*%
%ADD19R,1.2X1.2*%
%ADD20P,2.74X8X22.5*%
%ADD21R,5.28X2.0288*%
%ADD22R,3.2X2.3*%
%ADD23R,2.2X1.0*%
%ADD24R,1.2X0.4*%
%ADD25R,0.4X1.2*%
%ADD26P,2.74X8X292.5*%
%ADD27C,2.74*%
%ADD28C,1.2*%
G04 --- APERTURE LIST END --- *
G04 --- BOARD BEGIN --- *
D10*
X19843750Y10421250D03*
X19843750Y12121250D03*
D11*
X33757500Y3810000D03*
X35457500Y3810000D03*
X41060000Y14287500D03*
X42760000Y14287500D03*
D10*
X45720000Y2755000D03*
X45720000Y1055000D03*
D12*
X29845000Y8336250D03*
X29845000Y6586250D03*
D13*
X37150000Y13482500D03*
X38100000Y11282500D03*
X39050000Y13482500D03*
D11*
X32805000Y14287500D03*
X34505000Y14287500D03*
X7881250Y2540000D03*
X9581250Y2540000D03*
D14*
X51690000Y1587500D03*
X48640000Y1587500D03*
D11*
X12485000Y793750D03*
X14185000Y793750D03*
D15*
X21985000Y3810000D03*
X23735000Y3810000D03*
D11*
X51967500Y11430000D03*
X50267500Y11430000D03*
D16*
X53264000Y6985000D03*
D17*
X47066000Y4674000D03*
X47066000Y6985000D03*
X47066000Y9296000D03*
D12*
X21113750Y10237500D03*
X21113750Y11987500D03*
D11*
X7881250Y3810000D03*
X9581250Y3810000D03*
X24550000Y14287500D03*
X26250000Y14287500D03*
D18*
X40322500Y12280900D03*
X41592500Y6134100D03*
X40322500Y6134100D03*
X42862500Y12280900D03*
X42862500Y6134100D03*
X44132500Y6134100D03*
X44132500Y12280900D03*
X41592500Y12280900D03*
D11*
X13913750Y2222500D03*
X15613750Y2222500D03*
D19*
X17510000Y793750D03*
X15510000Y793750D03*
D20*
X56197500Y1587500D03*
D11*
X7881250Y13017500D03*
X9581250Y13017500D03*
D15*
X38495000Y2540000D03*
X40245000Y2540000D03*
D20*
X56197500Y14922500D03*
D11*
X7881250Y1270000D03*
X9581250Y1270000D03*
D21*
X3175000Y1587500D03*
D10*
X19843750Y8628750D03*
X19843750Y6928750D03*
D11*
X42012500Y3810000D03*
X43712500Y3810000D03*
X25502500Y3810000D03*
X27202500Y3810000D03*
D22*
X2232500Y15150000D03*
X2232500Y3900000D03*
D23*
X5357500Y7650000D03*
X5357500Y12650000D03*
X5357500Y10150000D03*
X5357500Y11400000D03*
X5357500Y8900000D03*
X5357500Y6400000D03*
D18*
X32067500Y12280900D03*
X33337500Y6134100D03*
X32067500Y6134100D03*
X34607500Y12280900D03*
X34607500Y6134100D03*
X35877500Y6134100D03*
X35877500Y12280900D03*
X33337500Y12280900D03*
D24*
X9470000Y10322500D03*
X9470000Y6322500D03*
X9470000Y6822500D03*
X18470000Y10322500D03*
D25*
X13220000Y13072500D03*
D24*
X18470000Y6822500D03*
X18470000Y11322500D03*
D25*
X16720000Y13072500D03*
D24*
X9470000Y9322500D03*
X9470000Y11322500D03*
D25*
X16720000Y4072500D03*
X12720000Y13072500D03*
D24*
X9470000Y7322500D03*
D25*
X12720000Y4072500D03*
X15220000Y4072500D03*
D24*
X18470000Y9822500D03*
X18470000Y7322500D03*
X18470000Y6322500D03*
D25*
X15720000Y4072500D03*
X14220000Y13072500D03*
X16220000Y4072500D03*
D24*
X18470000Y10822500D03*
D25*
X11220000Y4072500D03*
X14720000Y13072500D03*
D24*
X9470000Y9822500D03*
D25*
X13720000Y4072500D03*
X14220000Y4072500D03*
X16220000Y13072500D03*
D24*
X18470000Y8822500D03*
D25*
X11720000Y4072500D03*
D24*
X9470000Y5822500D03*
X9470000Y10822500D03*
D25*
X15720000Y13072500D03*
X12220000Y13072500D03*
X13220000Y4072500D03*
D24*
X18470000Y9322500D03*
X18470000Y8322500D03*
D25*
X14720000Y4072500D03*
D24*
X9470000Y8822500D03*
D25*
X11220000Y13072500D03*
D24*
X9470000Y7822500D03*
X18470000Y7822500D03*
D25*
X12220000Y4072500D03*
X11720000Y13072500D03*
X15220000Y13072500D03*
D24*
X18470000Y5822500D03*
X9470000Y8322500D03*
D25*
X13720000Y13072500D03*
D13*
X28895000Y13482500D03*
X29845000Y11282500D03*
X30795000Y13482500D03*
D12*
X22383750Y9130000D03*
X22383750Y7380000D03*
D15*
X30240000Y2540000D03*
X31990000Y2540000D03*
X30240000Y3810000D03*
X31990000Y3810000D03*
X19448750Y3492500D03*
X17698750Y3492500D03*
X18813750Y2222500D03*
X17063750Y2222500D03*
D13*
X45405000Y13482500D03*
X46355000Y11282500D03*
X47305000Y13482500D03*
D15*
X20873750Y5715000D03*
X22623750Y5715000D03*
D18*
X23812500Y12280900D03*
X25082500Y6134100D03*
X23812500Y6134100D03*
X26352500Y12280900D03*
X26352500Y6134100D03*
X27622500Y6134100D03*
X27622500Y12280900D03*
X25082500Y12280900D03*
D12*
X38100000Y8336250D03*
X38100000Y6586250D03*
D15*
X38495000Y3810000D03*
X40245000Y3810000D03*
D26*
X56197500Y5715000D03*
D27*
X56197500Y10795000D03*
D28*
X48895000Y10795000D03*
X47625000Y10795000D03*
X47625000Y12065000D03*
X48895000Y12065000D03*
X44132500Y13970000D03*
X10953750Y2857500D03*
X27622500Y13970000D03*
X35877500Y13970000D03*
G04 --- BOARD END --- *
%TF.MD5,193cf192feb82365bfbb4796d3bfc89d*%
M02*
