G04 --- HEADER BEGIN --- *
%TF.GenerationSoftware,LibrePCB,LibrePCB,0.1.1-unstable*%
%TF.CreationDate,2019-06-09T12:53:25*%
%TF.ProjectId,Brushless Controller - default,345039e0-aa20-4574-aecf-6ad16ab42204,v1*%
%TF.Part,Single*%
%FSLAX66Y66*%
%MOMM*%
G01*
G74*
G04 --- HEADER END --- *
G04 --- APERTURE LIST BEGIN --- *
%ADD10R,1.0X1.1*%
%ADD11R,1.1X1.0*%
%ADD12R,0.85X0.95*%
%ADD13R,1.0X1.4*%
%ADD14R,1.95X2.5*%
%ADD15R,0.95X0.85*%
%ADD16R,2.2X3.6*%
%ADD17R,2.235X1.219*%
%ADD18R,0.6604X2.032*%
%ADD19R,1.0X1.0*%
%ADD20P,2.54X8X22.5*%
%ADD21R,5.08X1.8288*%
%ADD22R,3.0X2.1*%
%ADD23R,2.0X0.8*%
%ADD24R,1.0X0.2*%
%ADD25R,0.2X1.0*%
%ADD26P,2.54X8X292.5*%
%ADD27C,2.54*%
%ADD28C,0.7*%
%ADD29C,1.0*%
%ADD30C,0.8*%
%ADD31C,0.6*%
%ADD32C,0.5*%
%ADD33C,0.2*%
%ADD34C,2.5*%
%ADD35C,0.3*%
%ADD36C,0.0*%
G04 --- APERTURE LIST END --- *
G04 --- BOARD BEGIN --- *
D10*
X19843750Y10421250D03*
X19843750Y12121250D03*
D11*
X33757500Y3810000D03*
X35457500Y3810000D03*
X41060000Y14287500D03*
X42760000Y14287500D03*
D10*
X45720000Y2755000D03*
X45720000Y1055000D03*
D12*
X29845000Y8336250D03*
X29845000Y6586250D03*
D13*
X37150000Y13482500D03*
X38100000Y11282500D03*
X39050000Y13482500D03*
D11*
X32805000Y14287500D03*
X34505000Y14287500D03*
X7881250Y2540000D03*
X9581250Y2540000D03*
D14*
X51690000Y1587500D03*
X48640000Y1587500D03*
D11*
X12485000Y793750D03*
X14185000Y793750D03*
D15*
X21985000Y3810000D03*
X23735000Y3810000D03*
D11*
X51967500Y11430000D03*
X50267500Y11430000D03*
D16*
X53264000Y6985000D03*
D17*
X47066000Y4674000D03*
X47066000Y6985000D03*
X47066000Y9296000D03*
D12*
X21113750Y10237500D03*
X21113750Y11987500D03*
D11*
X7881250Y3810000D03*
X9581250Y3810000D03*
X24550000Y14287500D03*
X26250000Y14287500D03*
D18*
X40322500Y12280900D03*
X41592500Y6134100D03*
X40322500Y6134100D03*
X42862500Y12280900D03*
X42862500Y6134100D03*
X44132500Y6134100D03*
X44132500Y12280900D03*
X41592500Y12280900D03*
D11*
X13913750Y2222500D03*
X15613750Y2222500D03*
D19*
X17510000Y793750D03*
X15510000Y793750D03*
D20*
X56197500Y1587500D03*
D11*
X7881250Y13017500D03*
X9581250Y13017500D03*
D15*
X38495000Y2540000D03*
X40245000Y2540000D03*
D20*
X56197500Y14922500D03*
D11*
X7881250Y1270000D03*
X9581250Y1270000D03*
D21*
X3175000Y1587500D03*
D10*
X19843750Y8628750D03*
X19843750Y6928750D03*
D11*
X42012500Y3810000D03*
X43712500Y3810000D03*
X25502500Y3810000D03*
X27202500Y3810000D03*
D22*
X2232500Y15150000D03*
X2232500Y3900000D03*
D23*
X5357500Y7650000D03*
X5357500Y12650000D03*
X5357500Y10150000D03*
X5357500Y11400000D03*
X5357500Y8900000D03*
X5357500Y6400000D03*
D18*
X32067500Y12280900D03*
X33337500Y6134100D03*
X32067500Y6134100D03*
X34607500Y12280900D03*
X34607500Y6134100D03*
X35877500Y6134100D03*
X35877500Y12280900D03*
X33337500Y12280900D03*
D24*
X9470000Y10322500D03*
X9470000Y6322500D03*
X9470000Y6822500D03*
X18470000Y10322500D03*
D25*
X13220000Y13072500D03*
D24*
X18470000Y6822500D03*
X18470000Y11322500D03*
D25*
X16720000Y13072500D03*
D24*
X9470000Y9322500D03*
X9470000Y11322500D03*
D25*
X16720000Y4072500D03*
X12720000Y13072500D03*
D24*
X9470000Y7322500D03*
D25*
X12720000Y4072500D03*
X15220000Y4072500D03*
D24*
X18470000Y9822500D03*
X18470000Y7322500D03*
X18470000Y6322500D03*
D25*
X15720000Y4072500D03*
X14220000Y13072500D03*
X16220000Y4072500D03*
D24*
X18470000Y10822500D03*
D25*
X11220000Y4072500D03*
X14720000Y13072500D03*
D24*
X9470000Y9822500D03*
D25*
X13720000Y4072500D03*
X14220000Y4072500D03*
X16220000Y13072500D03*
D24*
X18470000Y8822500D03*
D25*
X11720000Y4072500D03*
D24*
X9470000Y5822500D03*
X9470000Y10822500D03*
D25*
X15720000Y13072500D03*
X12220000Y13072500D03*
X13220000Y4072500D03*
D24*
X18470000Y9322500D03*
X18470000Y8322500D03*
D25*
X14720000Y4072500D03*
D24*
X9470000Y8822500D03*
D25*
X11220000Y13072500D03*
D24*
X9470000Y7822500D03*
X18470000Y7822500D03*
D25*
X12220000Y4072500D03*
X11720000Y13072500D03*
X15220000Y13072500D03*
D24*
X18470000Y5822500D03*
X9470000Y8322500D03*
D25*
X13720000Y13072500D03*
D13*
X28895000Y13482500D03*
X29845000Y11282500D03*
X30795000Y13482500D03*
D12*
X22383750Y9130000D03*
X22383750Y7380000D03*
D15*
X30240000Y2540000D03*
X31990000Y2540000D03*
X30240000Y3810000D03*
X31990000Y3810000D03*
X19448750Y3492500D03*
X17698750Y3492500D03*
X18813750Y2222500D03*
X17063750Y2222500D03*
D13*
X45405000Y13482500D03*
X46355000Y11282500D03*
X47305000Y13482500D03*
D15*
X20873750Y5715000D03*
X22623750Y5715000D03*
D18*
X23812500Y12280900D03*
X25082500Y6134100D03*
X23812500Y6134100D03*
X26352500Y12280900D03*
X26352500Y6134100D03*
X27622500Y6134100D03*
X27622500Y12280900D03*
X25082500Y12280900D03*
D12*
X38100000Y8336250D03*
X38100000Y6586250D03*
D15*
X38495000Y3810000D03*
X40245000Y3810000D03*
D26*
X56197500Y5715000D03*
D27*
X56197500Y10795000D03*
D28*
X14922500Y15557500D03*
X37623750Y3810000D03*
X19843750Y9525000D03*
X7937500Y9207500D03*
X21113750Y2857500D03*
X14922500Y11906250D03*
X21590000Y9207500D03*
X15557500Y5715000D03*
X30480000Y9207500D03*
X14287500Y5715000D03*
X15240000Y6350000D03*
X21113750Y3810000D03*
X10953750Y9366250D03*
X6667500Y952500D03*
X33020000Y4603750D03*
D29*
X48895000Y10795000D03*
X47625000Y10795000D03*
X47625000Y12065000D03*
X48895000Y12065000D03*
X44132500Y13970000D03*
D28*
X1587500Y8890000D03*
X14128750Y15557500D03*
X38735000Y9207500D03*
X3016250Y7620000D03*
X7461250Y5715000D03*
X14287500Y14128750D03*
X17462500Y13970000D03*
X3016250Y8890000D03*
X7461250Y4921250D03*
X3016250Y6350000D03*
X13176250Y14922500D03*
X14922500Y5715000D03*
X10636250Y13176250D03*
X16033750Y10953750D03*
D29*
X10953750Y2857500D03*
D30*
X21590000Y635000D03*
X20002500Y635000D03*
X19208750Y635000D03*
X20796250Y635000D03*
D28*
X7937500Y8255000D03*
X1587500Y6350000D03*
X24765000Y4603750D03*
D29*
X27622500Y13970000D03*
D28*
X19843750Y6032500D03*
X29368750Y3810000D03*
X41275000Y4603750D03*
X1587500Y7620000D03*
X19843750Y4762500D03*
X13493750Y11906250D03*
X12858750Y2381250D03*
X4762500Y3175000D03*
X13017500Y5556250D03*
X1587500Y10160000D03*
X11906250Y15081250D03*
X11906250Y5556250D03*
D29*
X35877500Y13970000D03*
D28*
X4445000Y15875000D03*
X7937500Y6985000D03*
X3016250Y10160000D03*
X17462500Y8890000D03*
D31*
X35457500Y3810000D02*
X35457500Y4342500D01*
X35877500Y7937500D02*
X35877500Y6350000D01*
X35457500Y4342500D02*
X35877500Y4762500D01*
X38100000Y10160000D02*
X35877500Y7937500D01*
X35877500Y6134100D02*
X35877500Y6350000D01*
X38100000Y11282500D02*
X38100000Y10160000D01*
X35877500Y4762500D02*
X35877500Y6350000D01*
D32*
X38495000Y3810000D02*
X38735000Y3810000D01*
X37623750Y3810000D02*
X38735000Y3810000D01*
D33*
X8322500Y8822500D02*
X7937500Y9207500D01*
X9470000Y8822500D02*
X8322500Y8822500D01*
D32*
X38100000Y6586250D02*
X38653750Y6586250D01*
X42545000Y7937500D02*
X42862500Y7620000D01*
X42862500Y6134100D02*
X42862500Y6032500D01*
X38653750Y6586250D02*
X40005000Y7937500D01*
X40005000Y7937500D02*
X42545000Y7937500D01*
X42862500Y7620000D02*
X42862500Y6032500D01*
D33*
X28892500Y4286250D02*
X28892500Y7143750D01*
X30480000Y7461250D02*
X29210000Y7461250D01*
X28892500Y7143750D02*
X29210000Y7461250D01*
X36195000Y9842500D02*
X32861250Y9842500D01*
X15220000Y12203750D02*
X14922500Y11906250D01*
X42862500Y11112500D02*
X42227500Y10477500D01*
X42862500Y12280900D02*
X42862500Y11112500D01*
X37147500Y10795000D02*
X36195000Y9842500D01*
X28733750Y3175000D02*
X28098750Y2540000D01*
X15220000Y13072500D02*
X15220000Y12203750D01*
X37147500Y12065000D02*
X37147500Y10795000D01*
X28098750Y2540000D02*
X21431250Y2540000D01*
X32861250Y9842500D02*
X30480000Y7461250D01*
X28733750Y3175000D02*
X28733750Y4127500D01*
X42227500Y10477500D02*
X39370000Y10477500D01*
X39052500Y10795000D02*
X39052500Y12065000D01*
X39052500Y12065000D02*
X38893750Y12223750D01*
X28733750Y4127500D02*
X28892500Y4286250D01*
X38893750Y12223750D02*
X37306250Y12223750D01*
X37306250Y12223750D02*
X37147500Y12065000D01*
X39370000Y10477500D02*
X39052500Y10795000D01*
X21431250Y2540000D02*
X21113750Y2857500D01*
D32*
X21590000Y9207500D02*
X22383750Y9207500D01*
X22383750Y9130000D02*
X22383750Y9207500D01*
X29845000Y8890000D02*
X30162500Y9207500D01*
X30162500Y9207500D02*
X30480000Y9207500D01*
X29845000Y8336250D02*
X29845000Y8890000D01*
X23812500Y6134100D02*
X23812500Y3810000D01*
X23735000Y3810000D02*
X23812500Y3810000D01*
X21985000Y3810000D02*
X22225000Y3810000D01*
X21113750Y3810000D02*
X22225000Y3810000D01*
D33*
X7302500Y7620000D02*
X6667500Y6985000D01*
X8572500Y7620000D02*
X7302500Y7620000D01*
X8870000Y7322500D02*
X8572500Y7620000D01*
X6667500Y6985000D02*
X6667500Y952500D01*
X9470000Y7322500D02*
X8870000Y7322500D01*
D32*
X31990000Y2540000D02*
X33020000Y2540000D01*
X33337500Y2857500D02*
X33337500Y3810000D01*
X33020000Y4603750D02*
X33337500Y4603750D01*
X33757500Y3810000D02*
X33337500Y3810000D01*
X33337500Y3810000D02*
X33337500Y4603750D01*
X33337500Y6134100D02*
X33337500Y4603750D01*
X33020000Y2540000D02*
X33337500Y2857500D01*
X32067500Y6134100D02*
X32067500Y3810000D01*
X31990000Y3810000D02*
X32067500Y3810000D01*
D30*
X47625000Y10795000D02*
X47625000Y12065000D01*
D31*
X42760000Y14287500D02*
X43815000Y14287500D01*
X47305000Y12385000D02*
X47625000Y12065000D01*
D30*
X48895000Y11430000D02*
X48895000Y10795000D01*
D31*
X47305000Y13482500D02*
X47305000Y12385000D01*
D30*
X50267500Y11430000D02*
X48895000Y11430000D01*
X48895000Y12065000D02*
X47625000Y12065000D01*
X48895000Y12065000D02*
X48895000Y11430000D01*
X47625000Y10795000D02*
X48895000Y10795000D01*
D31*
X44132500Y13970000D02*
X44132500Y13482500D01*
D30*
X47625000Y9296000D02*
X47625000Y10795000D01*
D31*
X44132500Y12280900D02*
X44132500Y13482500D01*
X47305000Y13482500D02*
X44132500Y13482500D01*
X43815000Y14287500D02*
X44132500Y13970000D01*
D30*
X47066000Y9296000D02*
X47625000Y9296000D01*
D33*
X19448750Y2935000D02*
X20320000Y2063750D01*
X28733750Y2540000D02*
X28257500Y2063750D01*
X19077500Y6322500D02*
X19208750Y6191250D01*
X19448750Y3492500D02*
X19208750Y3651250D01*
X18470000Y6322500D02*
X19077500Y6322500D01*
X19448750Y3492500D02*
X19448750Y2935000D01*
X28257500Y2063750D02*
X20320000Y2063750D01*
X30240000Y2540000D02*
X28733750Y2540000D01*
X19208750Y6191250D02*
X19208750Y3651250D01*
D31*
X45572500Y11282500D02*
X44132500Y9842500D01*
X44132500Y6032500D02*
X44132500Y6134100D01*
X44132500Y9842500D02*
X44132500Y6350000D01*
X46355000Y11282500D02*
X45572500Y11282500D01*
X43712500Y4342500D02*
X44132500Y4762500D01*
X44132500Y6134100D02*
X44132500Y6350000D01*
X43712500Y3810000D02*
X43712500Y4342500D01*
X44132500Y4762500D02*
X44132500Y6032500D01*
D32*
X38417500Y9207500D02*
X38735000Y9207500D01*
X38100000Y8890000D02*
X38417500Y9207500D01*
X38100000Y8336250D02*
X38100000Y8890000D01*
X26352500Y6134100D02*
X26352500Y6191250D01*
X22302500Y7380000D02*
X23018750Y8096250D01*
X22383750Y7380000D02*
X22302500Y7380000D01*
X25876250Y8096250D02*
X26352500Y7620000D01*
X26352500Y7620000D02*
X26352500Y6191250D01*
X23018750Y8096250D02*
X25876250Y8096250D01*
D33*
X31591250Y10795000D02*
X31273750Y11112500D01*
X27622500Y10318750D02*
X22701250Y10318750D01*
X28416250Y11112500D02*
X27622500Y10318750D01*
X21431250Y13970000D02*
X17462500Y13970000D01*
X28733750Y12541250D02*
X28416250Y12223750D01*
X28416250Y12223750D02*
X28416250Y11112500D01*
X22701250Y10318750D02*
X22383750Y10636250D01*
X22383750Y13017500D02*
X21431250Y13970000D01*
X33020000Y10795000D02*
X31591250Y10795000D01*
X30956250Y12541250D02*
X28733750Y12541250D01*
X31273750Y11112500D02*
X31273750Y12223750D01*
X22383750Y10636250D02*
X22383750Y13017500D01*
X31273750Y12223750D02*
X30956250Y12541250D01*
X14220000Y13072500D02*
X14220000Y14061250D01*
X33337500Y12280900D02*
X33337500Y11112500D01*
X33337500Y11112500D02*
X33020000Y10795000D01*
X14220000Y14061250D02*
X14287500Y14128750D01*
D32*
X34607500Y7620000D02*
X34607500Y6350000D01*
X29845000Y6586250D02*
X30398750Y6586250D01*
X30398750Y6586250D02*
X31750000Y7937500D01*
X34290000Y7937500D02*
X34607500Y7620000D01*
X31750000Y7937500D02*
X34290000Y7937500D01*
X34607500Y6134100D02*
X34607500Y6350000D01*
D33*
X13220000Y14878750D02*
X13176250Y14922500D01*
X13220000Y13072500D02*
X13220000Y14878750D01*
X5357500Y8900000D02*
X6667500Y8890000D01*
X6826250Y9683750D02*
X6826250Y9048750D01*
X7965000Y10822500D02*
X6826250Y9683750D01*
X9470000Y10822500D02*
X7965000Y10822500D01*
X6826250Y9048750D02*
X6667500Y8890000D01*
X17145000Y10953750D02*
X16033750Y10953750D01*
X18470000Y11322500D02*
X17513750Y11322500D01*
X11220000Y4072500D02*
X11220000Y4813750D01*
D30*
X20002500Y635000D02*
X19208750Y635000D01*
D33*
X19843750Y12121250D02*
X19741250Y11962500D01*
X11220000Y3123750D02*
X10953750Y2857500D01*
X9581250Y3810000D02*
X9470000Y4023750D01*
X9581250Y13017500D02*
X9580000Y13072500D01*
X9470000Y5822500D02*
X9470000Y4023750D01*
D30*
X45720000Y1055000D02*
X44552500Y1055000D01*
X45720000Y1055000D02*
X46990000Y1055000D01*
D33*
X9581250Y3707500D02*
X9581250Y3810000D01*
X17513750Y11322500D02*
X17145000Y10953750D01*
X10636250Y2540000D02*
X10953750Y2857500D01*
X9581250Y2540000D02*
X9581250Y3707500D01*
D30*
X19208750Y635000D02*
X18573750Y635000D01*
X47625000Y1587500D02*
X47625000Y3175000D01*
X21590000Y635000D02*
X44132500Y635000D01*
D33*
X19741250Y11962500D02*
X19105000Y11326250D01*
D30*
X18415000Y793750D02*
X17621250Y793750D01*
D33*
X10740000Y13072500D02*
X10636250Y13176250D01*
D30*
X21590000Y635000D02*
X20796250Y635000D01*
X20796250Y635000D02*
X20002500Y635000D01*
X48640000Y1587500D02*
X47625000Y1587500D01*
D33*
X11220000Y4072500D02*
X11220000Y3123750D01*
X10740000Y13072500D02*
X9580000Y13072500D01*
D30*
X47066000Y3734000D02*
X47625000Y3175000D01*
X18573750Y635000D02*
X18415000Y793750D01*
X44552500Y1055000D02*
X44132500Y635000D01*
D33*
X10211250Y5822500D02*
X11220000Y4813750D01*
D30*
X47625000Y1587500D02*
X46990000Y1055000D01*
X47066000Y4674000D02*
X47066000Y3734000D01*
D33*
X9470000Y5822500D02*
X10211250Y5822500D01*
X9581250Y2540000D02*
X10636250Y2540000D01*
D30*
X17510000Y793750D02*
X17621250Y793750D01*
D33*
X18470000Y11322500D02*
X19105000Y11326250D01*
X11220000Y13072500D02*
X10740000Y13072500D01*
X8005000Y8322500D02*
X7937500Y8255000D01*
X9470000Y8322500D02*
X8005000Y8322500D01*
X7461250Y14446250D02*
X6826250Y13811250D01*
X12220000Y13072500D02*
X12220000Y14132500D01*
X6826250Y11588750D02*
X6826250Y13811250D01*
X5357500Y11400000D02*
X6637500Y11400000D01*
X12220000Y14132500D02*
X11906250Y14446250D01*
X6637500Y11400000D02*
X6826250Y11588750D01*
X11906250Y14446250D02*
X7461250Y14446250D01*
D34*
X56197500Y14922500D02*
X56197500Y10795000D01*
D33*
X22623750Y6272500D02*
X23177500Y6826250D01*
D32*
X25082500Y6134100D02*
X25082500Y4603750D01*
D33*
X23336250Y7461250D02*
X24923750Y7461250D01*
X23177500Y6826250D02*
X23177500Y7302500D01*
X25082500Y7302500D02*
X25082500Y6191250D01*
D32*
X25502500Y3810000D02*
X25082500Y3810000D01*
D33*
X23177500Y7302500D02*
X23336250Y7461250D01*
D32*
X24765000Y4603750D02*
X25082500Y4603750D01*
D33*
X25082500Y6191250D02*
X25082500Y6134100D01*
D32*
X25082500Y3810000D02*
X25082500Y4603750D01*
D33*
X24923750Y7461250D02*
X25082500Y7302500D01*
X22623750Y5715000D02*
X22623750Y6272500D01*
X18470000Y7822500D02*
X20796250Y7822500D01*
X20796250Y9366250D02*
X21113750Y9683750D01*
X20873750Y5715000D02*
X20796250Y5792500D01*
X20796250Y5792500D02*
X20796250Y7822500D01*
X21113750Y9683750D02*
X21113750Y10318750D01*
X20796250Y7822500D02*
X20796250Y9366250D01*
X21113750Y10237500D02*
X21113750Y10318750D01*
X28892500Y12065000D02*
X28892500Y10953750D01*
X29051250Y12223750D02*
X28892500Y12065000D01*
X30797500Y12065000D02*
X30638750Y12223750D01*
X33972500Y10477500D02*
X31115000Y10477500D01*
X28892500Y10953750D02*
X27940000Y10001250D01*
X34607500Y12280900D02*
X34607500Y11112500D01*
X15720000Y12378750D02*
X15875000Y12223750D01*
X22383750Y10001250D02*
X22066250Y10318750D01*
X22066250Y10318750D02*
X22066250Y12700000D01*
X30797500Y10795000D02*
X30797500Y12065000D01*
X15720000Y13072500D02*
X15720000Y12378750D01*
X15875000Y12223750D02*
X17145000Y12223750D01*
X31115000Y10477500D02*
X30797500Y10795000D01*
X17145000Y12223750D02*
X18415000Y13652500D01*
X27940000Y10001250D02*
X22383750Y10001250D01*
X22066250Y12700000D02*
X21113750Y13652500D01*
X21113750Y13652500D02*
X18415000Y13652500D01*
X30638750Y12223750D02*
X29051250Y12223750D01*
X34607500Y11112500D02*
X33972500Y10477500D01*
X5357500Y7650000D02*
X6697500Y7650000D01*
X8100000Y10322500D02*
X7302500Y9525000D01*
X6697500Y7650000D02*
X7302500Y8255000D01*
X7302500Y8255000D02*
X7302500Y9525000D01*
X9470000Y10322500D02*
X8100000Y10322500D01*
D31*
X27622500Y13970000D02*
X27622500Y13482500D01*
X30795000Y13482500D02*
X27622500Y13482500D01*
X26250000Y14287500D02*
X27305000Y14287500D01*
X27622500Y12280900D02*
X27622500Y13482500D01*
X27305000Y14287500D02*
X27622500Y13970000D01*
D33*
X19843750Y6928750D02*
X19681250Y6822500D01*
X19843750Y6667500D02*
X19681250Y6822500D01*
X18470000Y6822500D02*
X19681250Y6822500D01*
X19843750Y6032500D02*
X19843750Y6667500D01*
D32*
X29368750Y3810000D02*
X30480000Y3810000D01*
X30240000Y3810000D02*
X30480000Y3810000D01*
X41592500Y2857500D02*
X41592500Y3810000D01*
X41592500Y6134100D02*
X41592500Y4603750D01*
X41275000Y2540000D02*
X41592500Y2857500D01*
X40245000Y2540000D02*
X41275000Y2540000D01*
X41275000Y4603750D02*
X41592500Y4603750D01*
X41592500Y3810000D02*
X41592500Y4603750D01*
X42012500Y3810000D02*
X41592500Y3810000D01*
D33*
X15220000Y2222500D02*
X15220000Y793750D01*
X15510000Y793750D02*
X15220000Y793750D01*
X14185000Y793750D02*
X15220000Y793750D01*
X15220000Y4072500D02*
X15220000Y2222500D01*
X15613750Y2222500D02*
X15220000Y2222500D01*
X22542500Y4762500D02*
X19843750Y4762500D01*
X36671250Y11112500D02*
X35718750Y10160000D01*
X39528750Y11112500D02*
X39528750Y12223750D01*
X13720000Y13072500D02*
X13720000Y12132500D01*
X36988750Y12541250D02*
X36671250Y12223750D01*
X22860000Y3175000D02*
X22860000Y4445000D01*
X39211250Y12541250D02*
X36988750Y12541250D01*
X39846250Y10795000D02*
X39528750Y11112500D01*
X28257500Y3333750D02*
X27940000Y3016250D01*
X23018750Y3016250D02*
X22860000Y3175000D01*
X28416250Y8413750D02*
X28416250Y4603750D01*
X22860000Y4445000D02*
X22542500Y4762500D01*
X27940000Y3016250D02*
X23018750Y3016250D01*
X35718750Y10160000D02*
X30162500Y10160000D01*
X36671250Y12223750D02*
X36671250Y11112500D01*
X41433750Y10795000D02*
X39846250Y10795000D01*
X13720000Y12132500D02*
X13493750Y11906250D01*
X30162500Y10160000D02*
X28416250Y8413750D01*
X28257500Y4445000D02*
X28257500Y3333750D01*
X39528750Y12223750D02*
X39211250Y12541250D01*
X41592500Y12280900D02*
X41592500Y10953750D01*
X41592500Y10953750D02*
X41433750Y10795000D01*
X28416250Y4603750D02*
X28257500Y4445000D01*
X14720000Y13072500D02*
X14720000Y13608750D01*
X18573750Y14605000D02*
X22066250Y14605000D01*
X18256250Y14922500D02*
X18573750Y14605000D01*
X23336250Y10953750D02*
X23018750Y11271250D01*
X22066250Y14605000D02*
X23018750Y13652500D01*
X14720000Y13608750D02*
X16033750Y14922500D01*
X23018750Y11271250D02*
X23018750Y13652500D01*
X25082500Y12280900D02*
X25082500Y11112500D01*
X16033750Y14922500D02*
X18256250Y14922500D01*
X24923750Y10953750D02*
X23336250Y10953750D01*
X25082500Y11112500D02*
X24923750Y10953750D01*
X23018750Y10636250D02*
X22701250Y10953750D01*
X16220000Y13072500D02*
X16220000Y13997500D01*
X18256250Y14287500D02*
X21748750Y14287500D01*
X21748750Y14287500D02*
X22701250Y13335000D01*
X17938750Y14605000D02*
X18256250Y14287500D01*
X22701250Y13335000D02*
X22701250Y10953750D01*
X16220000Y13997500D02*
X16827500Y14605000D01*
X25876250Y10636250D02*
X23018750Y10636250D01*
X26352500Y12280900D02*
X26352500Y11112500D01*
X26352500Y11112500D02*
X25876250Y10636250D01*
X16827500Y14605000D02*
X17938750Y14605000D01*
D31*
X27622500Y8572500D02*
X27622500Y6032500D01*
X27622500Y4762500D02*
X27622500Y6032500D01*
X29845000Y11282500D02*
X29845000Y10795000D01*
X27622500Y6134100D02*
X27622500Y6032500D01*
X27202500Y3810000D02*
X27202500Y4342500D01*
X29845000Y10795000D02*
X27622500Y8572500D01*
X27202500Y4342500D02*
X27622500Y4762500D01*
D35*
X3175000Y1587500D02*
X4762500Y1587500D01*
X4762500Y3175000D02*
X4762500Y1587500D01*
D33*
X13720000Y5330000D02*
X13493750Y5556250D01*
X13493750Y5556250D02*
X13017500Y5556250D01*
X13720000Y4072500D02*
X13720000Y5330000D01*
X9470000Y11322500D02*
X7830000Y11322500D01*
X5357500Y10150000D02*
X6667500Y10160000D01*
X7830000Y11322500D02*
X6667500Y10160000D01*
X12720000Y13072500D02*
X12720000Y14267500D01*
X12720000Y14267500D02*
X11906250Y15081250D01*
X12541250Y4921250D02*
X11906250Y5556250D01*
X13220000Y4072500D02*
X13220000Y4718750D01*
X13220000Y4718750D02*
X13017500Y4921250D01*
X13017500Y4921250D02*
X12541250Y4921250D01*
X18470000Y5822500D02*
X18573750Y5822500D01*
X19526250Y2222500D02*
X18891250Y2222500D01*
X18813750Y2222500D02*
X18891250Y2222500D01*
X18470000Y7322500D02*
X17800000Y7322500D01*
X17800000Y7322500D02*
X17621250Y7143750D01*
X17831250Y5822500D02*
X17621250Y6032500D01*
X18813750Y2222500D02*
X18573750Y2222500D01*
X33020000Y1587500D02*
X20161250Y1587500D01*
X33972500Y2540000D02*
X33020000Y1587500D01*
X38495000Y2540000D02*
X33972500Y2540000D01*
X18573750Y2222500D02*
X18573750Y5822500D01*
X17621250Y7143750D02*
X17621250Y6032500D01*
X18470000Y5822500D02*
X17831250Y5822500D01*
X20161250Y1587500D02*
X19526250Y2222500D01*
D31*
X34505000Y14287500D02*
X35560000Y14287500D01*
X39050000Y13482500D02*
X35877500Y13482500D01*
X35877500Y12280900D02*
X35877500Y13482500D01*
X35560000Y14287500D02*
X35877500Y13970000D01*
X35877500Y13970000D02*
X35877500Y13482500D01*
D33*
X8417500Y6822500D02*
X7937500Y6985000D01*
X9470000Y6822500D02*
X8417500Y6822500D01*
D32*
X40322500Y6134100D02*
X40322500Y3810000D01*
X40245000Y3810000D02*
X40322500Y3810000D01*
D33*
X13970000Y3175000D02*
X12541250Y3175000D01*
X5357500Y5755000D02*
X6032500Y5080000D01*
X14220000Y3425000D02*
X13970000Y3175000D01*
X6032500Y5080000D02*
X6032500Y635000D01*
X10636250Y1270000D02*
X9683750Y1270000D01*
X9366250Y317500D02*
X6350000Y317500D01*
X9581250Y1270000D02*
X9581250Y532500D01*
X14220000Y4072500D02*
X14220000Y3425000D01*
X5357500Y6400000D02*
X5357500Y5755000D01*
X9683750Y1270000D02*
X9581250Y1270000D01*
X6032500Y635000D02*
X6350000Y317500D01*
X9581250Y532500D02*
X9366250Y317500D01*
X12541250Y3175000D02*
X10636250Y1270000D01*
X18470000Y8822500D02*
X17530000Y8822500D01*
X17530000Y8822500D02*
X17462500Y8890000D01*
D36*
G36*
X57679327Y299500D02*
X57720000Y380000D01*
X57720000Y9967550D01*
X57700500Y10026877D01*
X57649605Y10063067D01*
X57587164Y10062005D01*
X57534736Y10019800D01*
X57453530Y9887283D01*
X57448922Y9880941D01*
X57296073Y9701979D01*
X57290520Y9696426D01*
X57111558Y9543577D01*
X57105216Y9538969D01*
X56904533Y9415991D01*
X56897556Y9412436D01*
X56680108Y9322367D01*
X56672653Y9319944D01*
X56443788Y9264999D01*
X56436064Y9263775D01*
X56201414Y9245308D01*
X56193586Y9245308D01*
X55958935Y9263775D01*
X55951211Y9264999D01*
X55722346Y9319944D01*
X55714891Y9322367D01*
X55497443Y9412436D01*
X55490466Y9415991D01*
X55289783Y9538969D01*
X55283441Y9543577D01*
X55104479Y9696426D01*
X55098926Y9701979D01*
X54946077Y9880941D01*
X54941469Y9887283D01*
X54818491Y10087966D01*
X54814936Y10094943D01*
X54724867Y10312391D01*
X54722444Y10319846D01*
X54667499Y10548711D01*
X54666275Y10556435D01*
X54647808Y10791086D01*
X54647808Y10798914D01*
X54666583Y11037473D01*
X54666580Y11037473D01*
X54667500Y11049165D01*
X54667500Y14232184D01*
X54659888Y14270452D01*
X54647500Y14300360D01*
X54647500Y15544640D01*
X54661564Y15578595D01*
X55132258Y16049289D01*
X55160420Y16105029D01*
X55150022Y16166607D01*
X55105118Y16210008D01*
X55061547Y16220000D01*
X4112500Y16220000D01*
X4053173Y16200500D01*
X4012500Y16120000D01*
X4012500Y13836013D01*
X4010934Y13831248D01*
X3988672Y13820000D01*
X468513Y13820000D01*
X455716Y13824206D01*
X425095Y13854827D01*
X363349Y13864176D01*
X308097Y13835070D01*
X280000Y13765572D01*
X280000Y5293369D01*
X299500Y5234042D01*
X350395Y5197852D01*
X425096Y5204115D01*
X476328Y5230000D01*
X3996487Y5230000D01*
X4001252Y5228434D01*
X4012500Y5206172D01*
X4012500Y3505788D01*
X4032000Y3446461D01*
X4082895Y3410271D01*
X4145336Y3411333D01*
X4201045Y3459315D01*
X4208097Y3472752D01*
X4287503Y3587791D01*
X4295465Y3596777D01*
X4400090Y3689467D01*
X4409976Y3696291D01*
X4533738Y3761247D01*
X4544975Y3765509D01*
X4680684Y3798957D01*
X4692613Y3800406D01*
X4832386Y3800406D01*
X4844315Y3798957D01*
X4980024Y3765509D01*
X4991261Y3761247D01*
X5115023Y3696291D01*
X5124909Y3689467D01*
X5229534Y3596777D01*
X5237496Y3587791D01*
X5316902Y3472752D01*
X5322481Y3462121D01*
X5372050Y3331420D01*
X5374922Y3319767D01*
X5391771Y3181004D01*
X5391771Y3168996D01*
X5374922Y3030232D01*
X5372050Y3018582D01*
X5333662Y2917361D01*
X5330857Y2854974D01*
X5365612Y2803088D01*
X5427164Y2781900D01*
X5552500Y2781900D01*
X5611827Y2801400D01*
X5652500Y2881900D01*
X5652500Y4881177D01*
X5623211Y4951888D01*
X5091576Y5483523D01*
X5086490Y5489479D01*
X5075852Y5504120D01*
X5065662Y5516052D01*
X5055639Y5526075D01*
X5046501Y5538653D01*
X5040071Y5551272D01*
X5031874Y5564648D01*
X5023542Y5576116D01*
X5016487Y5589963D01*
X5012108Y5603441D01*
X5006103Y5617938D01*
X4999671Y5630561D01*
X4993062Y5650902D01*
X4956183Y5701300D01*
X4897956Y5720000D01*
X4093513Y5720000D01*
X4088748Y5721566D01*
X4077500Y5743828D01*
X4077500Y12063987D01*
X4079066Y12068752D01*
X4101328Y12080000D01*
X6346250Y12080000D01*
X6405577Y12099500D01*
X6446250Y12180000D01*
X6446250Y13807319D01*
X6446865Y13815132D01*
X6449697Y13833014D01*
X6450928Y13848657D01*
X6450928Y13862827D01*
X6453360Y13878182D01*
X6457738Y13891656D01*
X6461402Y13906918D01*
X6463616Y13920899D01*
X6468421Y13935688D01*
X6474852Y13948309D01*
X6480857Y13962806D01*
X6485236Y13976284D01*
X6492292Y13990132D01*
X6500622Y14001597D01*
X6508821Y14014977D01*
X6515254Y14027602D01*
X6524384Y14040169D01*
X6534404Y14050189D01*
X6544595Y14062121D01*
X6555247Y14076782D01*
X6560321Y14082723D01*
X7189777Y14712179D01*
X7195718Y14717253D01*
X7210379Y14727905D01*
X7222311Y14738096D01*
X7232330Y14748115D01*
X7244897Y14757245D01*
X7257522Y14763678D01*
X7270902Y14771877D01*
X7282367Y14780207D01*
X7296215Y14787263D01*
X7309693Y14791642D01*
X7324190Y14797647D01*
X7336811Y14804078D01*
X7351599Y14808883D01*
X7365587Y14811098D01*
X7380848Y14814762D01*
X7394314Y14819138D01*
X7409676Y14821571D01*
X7423837Y14821571D01*
X7439481Y14822802D01*
X7457369Y14825635D01*
X7465181Y14826250D01*
X11194335Y14826250D01*
X11253662Y14845750D01*
X11289852Y14896645D01*
X11293606Y14938303D01*
X11276979Y15075246D01*
X11276979Y15087254D01*
X11293828Y15226018D01*
X11296699Y15237668D01*
X11346268Y15368371D01*
X11351847Y15379002D01*
X11431253Y15494041D01*
X11439215Y15503027D01*
X11543840Y15595717D01*
X11553726Y15602541D01*
X11677488Y15667497D01*
X11688725Y15671759D01*
X11824434Y15705207D01*
X11836363Y15706656D01*
X11976136Y15706656D01*
X11988065Y15705207D01*
X12123774Y15671759D01*
X12135011Y15667497D01*
X12258773Y15602541D01*
X12268659Y15595717D01*
X12373284Y15503027D01*
X12381246Y15494041D01*
X12460652Y15379002D01*
X12466231Y15368372D01*
X12490103Y15305425D01*
X12529373Y15256868D01*
X12589794Y15241077D01*
X12665903Y15284078D01*
X12701253Y15335291D01*
X12709215Y15344277D01*
X12813840Y15436967D01*
X12823726Y15443791D01*
X12947488Y15508747D01*
X12958725Y15513009D01*
X13094434Y15546457D01*
X13106363Y15547906D01*
X13246136Y15547906D01*
X13258065Y15546457D01*
X13393774Y15513009D01*
X13405011Y15508747D01*
X13528773Y15443791D01*
X13538659Y15436967D01*
X13643284Y15344277D01*
X13651246Y15335291D01*
X13730652Y15220252D01*
X13736231Y15209621D01*
X13785800Y15078920D01*
X13788672Y15067267D01*
X13805521Y14928504D01*
X13805521Y14916496D01*
X13788672Y14777732D01*
X13784351Y14760202D01*
X13786646Y14759636D01*
X13784275Y14707095D01*
X13819022Y14655204D01*
X13877779Y14634046D01*
X13928631Y14649112D01*
X13929619Y14647229D01*
X14058738Y14714997D01*
X14069975Y14719259D01*
X14205684Y14752707D01*
X14217613Y14754156D01*
X14357386Y14754156D01*
X14369315Y14752707D01*
X14505024Y14719259D01*
X14516261Y14714997D01*
X14640023Y14650041D01*
X14649909Y14643217D01*
X14754534Y14550527D01*
X14762499Y14541537D01*
X14838445Y14431510D01*
X14888194Y14393761D01*
X14950638Y14392889D01*
X14991454Y14417605D01*
X15762278Y15188429D01*
X15768225Y15193508D01*
X15782875Y15204152D01*
X15794808Y15214343D01*
X15804825Y15224360D01*
X15817403Y15233498D01*
X15830026Y15239930D01*
X15843402Y15248127D01*
X15854864Y15256454D01*
X15868715Y15263512D01*
X15882187Y15267889D01*
X15896684Y15273894D01*
X15909312Y15280328D01*
X15924098Y15285132D01*
X15938095Y15287349D01*
X15953356Y15291013D01*
X15966816Y15295387D01*
X15982178Y15297820D01*
X15996330Y15297820D01*
X16011974Y15299051D01*
X16029869Y15301885D01*
X16037681Y15302500D01*
X18252319Y15302500D01*
X18260131Y15301885D01*
X18278025Y15299051D01*
X18293669Y15297820D01*
X18307824Y15297820D01*
X18323179Y15295388D01*
X18336644Y15291013D01*
X18351901Y15287350D01*
X18365905Y15285132D01*
X18380686Y15280329D01*
X18393317Y15273893D01*
X18407817Y15267887D01*
X18421279Y15263513D01*
X18435137Y15256452D01*
X18446587Y15248133D01*
X18459970Y15239931D01*
X18472600Y15233496D01*
X18485170Y15224364D01*
X18495194Y15214340D01*
X18507127Y15204149D01*
X18521772Y15193509D01*
X18527725Y15188425D01*
X18701861Y15014289D01*
X18772572Y14985000D01*
X22062319Y14985000D01*
X22070131Y14984385D01*
X22088013Y14981553D01*
X22103657Y14980322D01*
X22117823Y14980322D01*
X22133185Y14977889D01*
X22146657Y14973511D01*
X22161918Y14969847D01*
X22175903Y14967632D01*
X22190685Y14962829D01*
X22203300Y14956401D01*
X22217802Y14950395D01*
X22231278Y14946017D01*
X22245135Y14938956D01*
X22256600Y14930626D01*
X22269984Y14922425D01*
X22282596Y14915999D01*
X22295170Y14906864D01*
X22305191Y14896843D01*
X22317123Y14886653D01*
X22331771Y14876010D01*
X22337727Y14870924D01*
X23284675Y13923976D01*
X23289759Y13918023D01*
X23300402Y13903374D01*
X23310593Y13891441D01*
X23320614Y13881420D01*
X23329747Y13868850D01*
X23336184Y13856217D01*
X23344381Y13842841D01*
X23352705Y13831383D01*
X23359762Y13817534D01*
X23364139Y13804062D01*
X23370144Y13789565D01*
X23376579Y13776935D01*
X23381382Y13762154D01*
X23383600Y13748151D01*
X23387264Y13732891D01*
X23391638Y13719430D01*
X23394070Y13704074D01*
X23394070Y13689919D01*
X23395301Y13674275D01*
X23398135Y13656381D01*
X23398750Y13648569D01*
X23398750Y11470072D01*
X23428039Y11399361D01*
X23464361Y11363039D01*
X23535072Y11333750D01*
X24372300Y11333750D01*
X24431627Y11353250D01*
X24472300Y11433750D01*
X24472300Y13560887D01*
X24473866Y13565652D01*
X24496128Y13576900D01*
X25320000Y13576900D01*
X25379327Y13596400D01*
X25420000Y13676900D01*
X25420000Y15051487D01*
X25421566Y15056252D01*
X25443828Y15067500D01*
X27063987Y15067500D01*
X27068752Y15065934D01*
X27080000Y15043672D01*
X27080000Y14967500D01*
X27099500Y14908173D01*
X27180000Y14867500D01*
X27301720Y14867500D01*
X27308257Y14867071D01*
X27448617Y14848593D01*
X27461170Y14845229D01*
X27588949Y14792301D01*
X27600196Y14785807D01*
X27628998Y14763706D01*
X27678678Y14743670D01*
X27790480Y14731072D01*
X27801372Y14728586D01*
X27955628Y14674610D01*
X27965682Y14669768D01*
X28104065Y14582817D01*
X28112795Y14575855D01*
X28196861Y14491789D01*
X28267572Y14462500D01*
X29658987Y14462500D01*
X29663752Y14460934D01*
X29675000Y14438672D01*
X29675000Y14162500D01*
X29694500Y14103173D01*
X29775000Y14062500D01*
X29915000Y14062500D01*
X29974327Y14082000D01*
X30015000Y14162500D01*
X30015000Y14446487D01*
X30016566Y14451252D01*
X30038828Y14462500D01*
X31558987Y14462500D01*
X31563752Y14460934D01*
X31575000Y14438672D01*
X31575000Y12502500D01*
X31577653Y12502500D01*
X31582050Y12445392D01*
X31591182Y12427469D01*
X31599383Y12414087D01*
X31607702Y12402637D01*
X31614763Y12388779D01*
X31619137Y12375317D01*
X31625143Y12360817D01*
X31631579Y12348186D01*
X31636382Y12333405D01*
X31638600Y12319401D01*
X31642263Y12304144D01*
X31646638Y12290679D01*
X31649070Y12275324D01*
X31649070Y12261169D01*
X31650301Y12245525D01*
X31653135Y12227631D01*
X31653750Y12219819D01*
X31653750Y11311322D01*
X31683039Y11240611D01*
X31719361Y11204289D01*
X31790072Y11175000D01*
X32627300Y11175000D01*
X32686627Y11194500D01*
X32727300Y11275000D01*
X32727300Y13560887D01*
X32728866Y13565652D01*
X32751128Y13576900D01*
X33575000Y13576900D01*
X33634327Y13596400D01*
X33675000Y13676900D01*
X33675000Y15051487D01*
X33676566Y15056252D01*
X33698828Y15067500D01*
X35318987Y15067500D01*
X35323752Y15065934D01*
X35335000Y15043672D01*
X35335000Y14967500D01*
X35354500Y14908173D01*
X35435000Y14867500D01*
X35556720Y14867500D01*
X35563257Y14867071D01*
X35703617Y14848593D01*
X35716170Y14845229D01*
X35843949Y14792301D01*
X35855196Y14785807D01*
X35883998Y14763706D01*
X35933678Y14743670D01*
X36045480Y14731072D01*
X36056372Y14728586D01*
X36210628Y14674610D01*
X36220682Y14669768D01*
X36359065Y14582817D01*
X36367795Y14575855D01*
X36451861Y14491789D01*
X36522572Y14462500D01*
X37913987Y14462500D01*
X37918752Y14460934D01*
X37930000Y14438672D01*
X37930000Y14162500D01*
X37949500Y14103173D01*
X38030000Y14062500D01*
X38170000Y14062500D01*
X38229327Y14082000D01*
X38270000Y14162500D01*
X38270000Y14446487D01*
X38271566Y14451252D01*
X38293828Y14462500D01*
X39813987Y14462500D01*
X39818752Y14460934D01*
X39830000Y14438672D01*
X39830000Y12502500D01*
X39832653Y12502500D01*
X39837050Y12445392D01*
X39846182Y12427469D01*
X39854383Y12414087D01*
X39862702Y12402637D01*
X39869763Y12388779D01*
X39874137Y12375317D01*
X39880143Y12360817D01*
X39886579Y12348186D01*
X39891382Y12333405D01*
X39893600Y12319401D01*
X39897263Y12304144D01*
X39901638Y12290679D01*
X39904070Y12275324D01*
X39904070Y12261169D01*
X39905301Y12245525D01*
X39908135Y12227631D01*
X39908750Y12219819D01*
X39908750Y11311322D01*
X39938039Y11240611D01*
X39974361Y11204289D01*
X40045072Y11175000D01*
X40882300Y11175000D01*
X40941627Y11194500D01*
X40982300Y11275000D01*
X40982300Y13560887D01*
X40983866Y13565652D01*
X41006128Y13576900D01*
X41830000Y13576900D01*
X41889327Y13596400D01*
X41930000Y13676900D01*
X41930000Y15051487D01*
X41931566Y15056252D01*
X41953828Y15067500D01*
X43573987Y15067500D01*
X43578752Y15065934D01*
X43590000Y15043672D01*
X43590000Y14967500D01*
X43609500Y14908173D01*
X43690000Y14867500D01*
X43811720Y14867500D01*
X43818257Y14867071D01*
X43958617Y14848593D01*
X43971170Y14845229D01*
X44098949Y14792301D01*
X44110196Y14785807D01*
X44138998Y14763706D01*
X44188678Y14743670D01*
X44300480Y14731072D01*
X44311372Y14728586D01*
X44465628Y14674610D01*
X44475682Y14669768D01*
X44614065Y14582817D01*
X44622795Y14575855D01*
X44706861Y14491789D01*
X44777572Y14462500D01*
X46168987Y14462500D01*
X46173752Y14460934D01*
X46185000Y14438672D01*
X46185000Y14162500D01*
X46204500Y14103173D01*
X46285000Y14062500D01*
X46425000Y14062500D01*
X46484327Y14082000D01*
X46525000Y14162500D01*
X46525000Y14446487D01*
X46526566Y14451252D01*
X46548828Y14462500D01*
X48068987Y14462500D01*
X48073752Y14460934D01*
X48085000Y14438672D01*
X48085000Y12845000D01*
X48104500Y12785673D01*
X48185000Y12745000D01*
X48491545Y12745000D01*
X48544747Y12760327D01*
X48551812Y12764766D01*
X48561871Y12769610D01*
X48716127Y12823586D01*
X48727019Y12826072D01*
X48889418Y12844371D01*
X48900582Y12844371D01*
X49062980Y12826072D01*
X49073872Y12823586D01*
X49228128Y12769610D01*
X49238182Y12764768D01*
X49376565Y12677817D01*
X49385295Y12670855D01*
X49500855Y12555295D01*
X49507817Y12546565D01*
X49594768Y12408182D01*
X49599610Y12398128D01*
X49642004Y12276972D01*
X49680004Y12227414D01*
X49736392Y12210000D01*
X51081487Y12210000D01*
X51086252Y12208434D01*
X51097500Y12186172D01*
X51097500Y10666013D01*
X51095934Y10661248D01*
X51073672Y10650000D01*
X49736393Y10650000D01*
X49677066Y10630500D01*
X49642005Y10583028D01*
X49599610Y10461871D01*
X49594768Y10451817D01*
X49507817Y10313434D01*
X49500855Y10304704D01*
X49385295Y10189144D01*
X49376565Y10182182D01*
X49238182Y10095231D01*
X49228128Y10090389D01*
X49073871Y10036412D01*
X49062981Y10033927D01*
X48900583Y10015629D01*
X48889417Y10015629D01*
X48727018Y10033927D01*
X48716128Y10036412D01*
X48596528Y10078262D01*
X48534089Y10079451D01*
X48483121Y10043365D01*
X48463500Y9983874D01*
X48463500Y8422513D01*
X48461934Y8417748D01*
X48439672Y8406500D01*
X45684513Y8406500D01*
X45679748Y8408066D01*
X45668500Y8430328D01*
X45668500Y10169485D01*
X45669177Y10171545D01*
X45669177Y10233995D01*
X45605401Y10297771D01*
X45579570Y10306261D01*
X45546669Y10339162D01*
X45484923Y10348511D01*
X45430862Y10320618D01*
X44741789Y9631545D01*
X44712500Y9560834D01*
X44712500Y7489872D01*
X44723246Y7444776D01*
X44742700Y7406273D01*
X44742700Y4854113D01*
X44734771Y4829988D01*
X44723246Y4818464D01*
X44712500Y4773367D01*
X44712500Y4765781D01*
X44712071Y4759244D01*
X44693592Y4618886D01*
X44690227Y4606327D01*
X44637303Y4478557D01*
X44630802Y4467298D01*
X44563165Y4379151D01*
X44542500Y4318275D01*
X44542500Y3046013D01*
X44540934Y3041248D01*
X44518672Y3030000D01*
X42898514Y3030000D01*
X42889491Y3032966D01*
X42842500Y3029428D01*
X42842500Y3030000D01*
X42222500Y3030000D01*
X42163173Y3010500D01*
X42122500Y2930000D01*
X42122500Y2860781D01*
X42122071Y2854244D01*
X42105296Y2726827D01*
X42101931Y2714268D01*
X42054002Y2598557D01*
X42047501Y2587298D01*
X41971426Y2488154D01*
X41966998Y2483775D01*
X41965623Y2481091D01*
X41650683Y2166151D01*
X41648724Y2165501D01*
X41644345Y2161073D01*
X41545202Y2084998D01*
X41533943Y2078497D01*
X41418227Y2030566D01*
X41405680Y2027204D01*
X41278239Y2010426D01*
X41271730Y2010000D01*
X41100000Y2010000D01*
X41040673Y1990500D01*
X41000000Y1910000D01*
X41000000Y1851013D01*
X40998434Y1846248D01*
X40976172Y1835000D01*
X39506013Y1835000D01*
X39501248Y1836566D01*
X39490000Y1858828D01*
X39490000Y4498987D01*
X39491566Y4503752D01*
X39513828Y4515000D01*
X39692500Y4515000D01*
X39751827Y4534500D01*
X39792500Y4615000D01*
X39792500Y4744608D01*
X39773000Y4803935D01*
X39723725Y4839608D01*
X39723548Y4839666D01*
X39712300Y4861928D01*
X39712300Y6653845D01*
X39692800Y6713172D01*
X39641905Y6749362D01*
X39579464Y6748300D01*
X39541589Y6724556D01*
X39030829Y6213796D01*
X39025918Y6209490D01*
X39010711Y6197821D01*
X38923952Y6131247D01*
X38912695Y6124748D01*
X38866731Y6105709D01*
X38819382Y6064989D01*
X38805000Y6013321D01*
X38805000Y5847263D01*
X38803434Y5842498D01*
X38781172Y5831250D01*
X37411013Y5831250D01*
X37406248Y5832816D01*
X37395000Y5855078D01*
X37395000Y7325237D01*
X37396566Y7330002D01*
X37418828Y7341250D01*
X38617795Y7341250D01*
X38688506Y7370539D01*
X38728506Y7410539D01*
X38756668Y7466279D01*
X38746270Y7527857D01*
X38701366Y7571258D01*
X38657795Y7581250D01*
X37411013Y7581250D01*
X37406248Y7582816D01*
X37395000Y7605078D01*
X37395000Y8393334D01*
X37375500Y8452661D01*
X37324605Y8488851D01*
X37262164Y8487789D01*
X37224289Y8464045D01*
X36486789Y7726545D01*
X36457500Y7655834D01*
X36457500Y7489872D01*
X36468246Y7444776D01*
X36487700Y7406273D01*
X36487700Y4854113D01*
X36479771Y4829988D01*
X36468246Y4818464D01*
X36457500Y4773367D01*
X36457500Y4765781D01*
X36457071Y4759244D01*
X36438592Y4618886D01*
X36435227Y4606327D01*
X36382303Y4478557D01*
X36375802Y4467298D01*
X36308165Y4379151D01*
X36287500Y4318275D01*
X36287500Y3030000D01*
X36289213Y3030000D01*
X36289213Y2988776D01*
X36326262Y2938504D01*
X36384213Y2920000D01*
X37640000Y2920000D01*
X37699327Y2939500D01*
X37740000Y3020000D01*
X37740000Y3084593D01*
X37720500Y3143920D01*
X37640000Y3184593D01*
X37553863Y3184593D01*
X37541934Y3186042D01*
X37406225Y3219490D01*
X37394988Y3223752D01*
X37271226Y3288708D01*
X37261340Y3295532D01*
X37156715Y3388222D01*
X37148753Y3397208D01*
X37069347Y3512247D01*
X37063768Y3522878D01*
X37014199Y3653581D01*
X37011328Y3665231D01*
X36994479Y3803996D01*
X36994479Y3816004D01*
X37011328Y3954768D01*
X37014199Y3966418D01*
X37063768Y4097121D01*
X37069347Y4107752D01*
X37148753Y4222791D01*
X37156715Y4231777D01*
X37261340Y4324467D01*
X37271226Y4331291D01*
X37394988Y4396247D01*
X37406225Y4400509D01*
X37541934Y4433957D01*
X37553863Y4435406D01*
X37646707Y4435406D01*
X37706034Y4454906D01*
X37741300Y4503618D01*
X37763828Y4515000D01*
X39233987Y4515000D01*
X39238752Y4513434D01*
X39250000Y4491172D01*
X39250000Y3930483D01*
X39250856Y3917430D01*
X39264144Y3816502D01*
X39264144Y3803498D01*
X39250856Y3702569D01*
X39250000Y3689516D01*
X39250000Y1851013D01*
X39248434Y1846248D01*
X39226172Y1835000D01*
X37756013Y1835000D01*
X37751248Y1836566D01*
X37740000Y1858828D01*
X37740000Y2060000D01*
X37720500Y2119327D01*
X37640000Y2160000D01*
X34171323Y2160000D01*
X34100612Y2130711D01*
X33455612Y1485711D01*
X33427450Y1429971D01*
X33437848Y1368393D01*
X33482752Y1324992D01*
X33526323Y1315000D01*
X43809413Y1315000D01*
X43880124Y1344289D01*
X44069533Y1533698D01*
X44074043Y1537693D01*
X44080745Y1542944D01*
X44093920Y1555346D01*
X44097564Y1559459D01*
X44106553Y1567422D01*
X44149758Y1597244D01*
X44154623Y1600824D01*
X44195946Y1633198D01*
X44206226Y1639413D01*
X44211224Y1641662D01*
X44226999Y1650559D01*
X44231513Y1653675D01*
X44242143Y1659254D01*
X44291242Y1677875D01*
X44296824Y1680187D01*
X44344683Y1701727D01*
X44356146Y1705299D01*
X44361542Y1706288D01*
X44378975Y1711148D01*
X44384113Y1713097D01*
X44395766Y1715969D01*
X44447901Y1722299D01*
X44453873Y1723208D01*
X44505489Y1732667D01*
X44517484Y1733392D01*
X44522943Y1733062D01*
X44541039Y1733608D01*
X44549500Y1734636D01*
X44555526Y1735000D01*
X44840000Y1735000D01*
X44899327Y1754500D01*
X44940000Y1835000D01*
X44940000Y1868987D01*
X44941566Y1873752D01*
X44963828Y1885000D01*
X46483987Y1885000D01*
X46488752Y1883434D01*
X46500000Y1861172D01*
X46500000Y1835000D01*
X46519500Y1775673D01*
X46600000Y1735000D01*
X46706238Y1735000D01*
X46770494Y1758376D01*
X46909256Y1874740D01*
X46945000Y1951364D01*
X46945000Y2851913D01*
X46915711Y2922624D01*
X46587301Y3251034D01*
X46583310Y3255540D01*
X46578060Y3262241D01*
X46565648Y3275426D01*
X46561537Y3279068D01*
X46553579Y3288051D01*
X46523748Y3331268D01*
X46520167Y3336134D01*
X46487800Y3377446D01*
X46481586Y3387726D01*
X46479337Y3392724D01*
X46470440Y3408499D01*
X46467324Y3413013D01*
X46461745Y3423643D01*
X46443124Y3472742D01*
X46440812Y3478324D01*
X46419272Y3526183D01*
X46415700Y3537646D01*
X46414711Y3543042D01*
X46409851Y3560475D01*
X46407902Y3565614D01*
X46405031Y3577265D01*
X46398701Y3629395D01*
X46397792Y3635367D01*
X46388331Y3686997D01*
X46388116Y3690541D01*
X46387308Y3692575D01*
X46387241Y3692942D01*
X46387168Y3692929D01*
X46365068Y3748582D01*
X46288299Y3784500D01*
X45684513Y3784500D01*
X45679748Y3786066D01*
X45668500Y3808328D01*
X45668500Y5547487D01*
X45670066Y5552252D01*
X45692328Y5563500D01*
X48447487Y5563500D01*
X48452252Y5561934D01*
X48463500Y5539672D01*
X48463500Y3800513D01*
X48461934Y3795748D01*
X48439672Y3784500D01*
X48214717Y3784500D01*
X48155390Y3765000D01*
X48119200Y3714105D01*
X48120262Y3651664D01*
X48134947Y3626587D01*
X48133986Y3625924D01*
X48167239Y3577748D01*
X48170820Y3572882D01*
X48203198Y3531555D01*
X48209413Y3521274D01*
X48211662Y3516275D01*
X48220559Y3500500D01*
X48223675Y3495986D01*
X48229254Y3485356D01*
X48247875Y3436257D01*
X48250187Y3430675D01*
X48271727Y3382816D01*
X48275299Y3371353D01*
X48276288Y3365957D01*
X48281148Y3348524D01*
X48283097Y3343386D01*
X48285969Y3331733D01*
X48292299Y3279600D01*
X48293208Y3273629D01*
X48302667Y3222013D01*
X48303305Y3211463D01*
X48326351Y3153421D01*
X48403123Y3117500D01*
X49878987Y3117500D01*
X49883752Y3115934D01*
X49895000Y3093672D01*
X49895000Y380000D01*
X49914500Y320673D01*
X49995000Y280000D01*
X57620000Y280000D01*
X57679327Y299500D01*
G37*
G36*
X13314327Y299500D02*
X13355000Y380000D01*
X13355000Y1557737D01*
X13356566Y1562502D01*
X13378828Y1573750D01*
X14683750Y1573750D01*
X14743077Y1593250D01*
X14783750Y1673750D01*
X14783750Y2986487D01*
X14785370Y2991415D01*
X14829255Y3035299D01*
X14840000Y3080395D01*
X14840000Y4836487D01*
X14841566Y4841252D01*
X14863828Y4852500D01*
X15963863Y4852500D01*
X15963863Y10328343D01*
X15951934Y10329792D01*
X15816225Y10363240D01*
X15804988Y10367502D01*
X15681226Y10432458D01*
X15671340Y10439282D01*
X15566715Y10531972D01*
X15558753Y10540958D01*
X15479347Y10655997D01*
X15473768Y10666628D01*
X15424199Y10797331D01*
X15421328Y10808981D01*
X15404479Y10947746D01*
X15404479Y10959754D01*
X15421328Y11098518D01*
X15424199Y11110168D01*
X15473768Y11240871D01*
X15479347Y11251502D01*
X15558753Y11366541D01*
X15566715Y11375527D01*
X15671340Y11468217D01*
X15681226Y11475041D01*
X15804988Y11539997D01*
X15816225Y11544259D01*
X15951934Y11577707D01*
X15963863Y11579156D01*
X16103636Y11579156D01*
X16115565Y11577707D01*
X16251274Y11544259D01*
X16262511Y11539997D01*
X16386273Y11475041D01*
X16396159Y11468217D01*
X16500780Y11375531D01*
X16507952Y11367436D01*
X16582802Y11333750D01*
X16946177Y11333750D01*
X17016888Y11363039D01*
X17242278Y11588429D01*
X17248225Y11593508D01*
X17262875Y11604152D01*
X17274808Y11614343D01*
X17284829Y11624364D01*
X17297399Y11633496D01*
X17310026Y11639930D01*
X17323405Y11648129D01*
X17334866Y11656456D01*
X17348714Y11663512D01*
X17362191Y11667891D01*
X17376688Y11673896D01*
X17389314Y11680329D01*
X17404095Y11685132D01*
X17418091Y11687349D01*
X17433349Y11691012D01*
X17446821Y11695389D01*
X17462174Y11697821D01*
X17476337Y11697821D01*
X17491981Y11699052D01*
X17509869Y11701885D01*
X17517681Y11702500D01*
X18468691Y11702500D01*
X18469281Y11702502D01*
X18905592Y11705078D01*
X18975713Y11734365D01*
X19034461Y11793113D01*
X19063750Y11863824D01*
X19063750Y12935237D01*
X19065316Y12940002D01*
X19087578Y12951250D01*
X20607737Y12951250D01*
X20612502Y12949684D01*
X20623750Y12927422D01*
X20623750Y11307263D01*
X20622184Y11302498D01*
X20599922Y11291250D01*
X19648824Y11291250D01*
X19578113Y11261961D01*
X19376478Y11060326D01*
X19370523Y11055240D01*
X19357008Y11045421D01*
X19344660Y11034812D01*
X19335698Y11025743D01*
X19323175Y11016532D01*
X19309346Y11009382D01*
X19296495Y11001455D01*
X19280093Y10989539D01*
X19257239Y10958197D01*
X19226172Y10942500D01*
X17712573Y10942500D01*
X17641862Y10913211D01*
X17584065Y10855414D01*
X17563240Y10814195D01*
X17527822Y10799171D01*
X17416476Y10687825D01*
X17410523Y10682741D01*
X17395878Y10672101D01*
X17383945Y10661910D01*
X17373920Y10651885D01*
X17361350Y10642753D01*
X17348720Y10636318D01*
X17335337Y10628116D01*
X17323884Y10619795D01*
X17310030Y10612736D01*
X17296560Y10608359D01*
X17282059Y10602353D01*
X17269434Y10595920D01*
X17254652Y10591117D01*
X17240654Y10588900D01*
X17225393Y10585236D01*
X17211933Y10580862D01*
X17196571Y10578429D01*
X17182414Y10578429D01*
X17166771Y10577198D01*
X17148882Y10574365D01*
X17141069Y10573750D01*
X16582803Y10573750D01*
X16507954Y10540064D01*
X16500785Y10531973D01*
X16396159Y10439282D01*
X16386273Y10432458D01*
X16262511Y10367502D01*
X16251274Y10363240D01*
X16115565Y10329792D01*
X16103636Y10328343D01*
X15963863Y10328343D01*
X15963863Y4852500D01*
X17083987Y4852500D01*
X17088752Y4850934D01*
X17100000Y4828672D01*
X17100000Y3308513D01*
X17098434Y3303748D01*
X17076172Y3292500D01*
X15700000Y3292500D01*
X15640673Y3273000D01*
X15600000Y3192500D01*
X15600000Y3102500D01*
X15619500Y3043173D01*
X15700000Y3002500D01*
X16427737Y3002500D01*
X16432502Y3000934D01*
X16443750Y2978672D01*
X16443750Y1458513D01*
X16442184Y1453748D01*
X16419922Y1442500D01*
X16390000Y1442500D01*
X16330673Y1423000D01*
X16290000Y1342500D01*
X16290000Y380000D01*
X16309500Y320673D01*
X16390000Y280000D01*
X16630000Y280000D01*
X16689327Y299500D01*
X16730000Y380000D01*
X16730000Y1557737D01*
X16731566Y1562502D01*
X16753828Y1573750D01*
X17958750Y1573750D01*
X18018077Y1593250D01*
X18058750Y1673750D01*
X18058750Y2911487D01*
X18060316Y2916252D01*
X18082578Y2927500D01*
X18093750Y2927500D01*
X18153077Y2947000D01*
X18193750Y3027500D01*
X18193750Y5342500D01*
X18174250Y5401827D01*
X18093750Y5442500D01*
X17706013Y5442500D01*
X17699193Y5444742D01*
X17658815Y5485258D01*
X17652365Y5488544D01*
X17640911Y5496867D01*
X17627527Y5505069D01*
X17614899Y5511503D01*
X17602329Y5520635D01*
X17592302Y5530662D01*
X17580370Y5540853D01*
X17565720Y5551497D01*
X17559779Y5556571D01*
X17355321Y5761029D01*
X17350247Y5766970D01*
X17339603Y5781620D01*
X17329412Y5793552D01*
X17319385Y5803579D01*
X17310253Y5816149D01*
X17303819Y5828777D01*
X17295617Y5842161D01*
X17287294Y5853616D01*
X17280237Y5867466D01*
X17275862Y5880932D01*
X17269856Y5895432D01*
X17263421Y5908060D01*
X17258617Y5922848D01*
X17256400Y5936846D01*
X17252736Y5952109D01*
X17248362Y5965570D01*
X17245929Y5980929D01*
X17245929Y5995086D01*
X17244698Y6010729D01*
X17241865Y6028618D01*
X17241250Y6036431D01*
X17241250Y7139819D01*
X17241865Y7147632D01*
X17244698Y7165521D01*
X17245929Y7181164D01*
X17245929Y7195320D01*
X17248362Y7210679D01*
X17252736Y7224140D01*
X17256400Y7239403D01*
X17258617Y7253401D01*
X17263421Y7268189D01*
X17269856Y7280817D01*
X17275862Y7295317D01*
X17280237Y7308783D01*
X17287296Y7322637D01*
X17295619Y7334093D01*
X17303817Y7347469D01*
X17310251Y7360096D01*
X17319389Y7372674D01*
X17329412Y7382697D01*
X17339603Y7394629D01*
X17350246Y7409277D01*
X17355325Y7415225D01*
X17528525Y7588425D01*
X17534473Y7593504D01*
X17549121Y7604147D01*
X17561053Y7614338D01*
X17571075Y7624360D01*
X17583653Y7633498D01*
X17596280Y7639932D01*
X17609656Y7648130D01*
X17621112Y7656453D01*
X17635398Y7663732D01*
X17679407Y7708040D01*
X17690000Y7752833D01*
X17690000Y8174309D01*
X17670500Y8233636D01*
X17619605Y8269826D01*
X17566070Y8271404D01*
X17544310Y8266041D01*
X17532386Y8264593D01*
X17392613Y8264593D01*
X17380684Y8266042D01*
X17244975Y8299490D01*
X17233738Y8303752D01*
X17109976Y8368708D01*
X17100090Y8375532D01*
X16995465Y8468222D01*
X16987503Y8477208D01*
X16908097Y8592247D01*
X16902518Y8602878D01*
X16852949Y8733581D01*
X16850078Y8745231D01*
X16833229Y8883996D01*
X16833229Y8896004D01*
X16850078Y9034768D01*
X16852949Y9046418D01*
X16902518Y9177121D01*
X16908097Y9187752D01*
X16987503Y9302791D01*
X16995465Y9311777D01*
X17100090Y9404467D01*
X17109976Y9411291D01*
X17233738Y9476247D01*
X17244975Y9480509D01*
X17380684Y9513957D01*
X17392613Y9515406D01*
X17532386Y9515406D01*
X17544310Y9513958D01*
X17566070Y9508595D01*
X17628340Y9513332D01*
X17675658Y9554088D01*
X17690000Y9605690D01*
X17690000Y10686486D01*
X17692927Y10695390D01*
X17699872Y10695449D01*
X17713827Y10702500D01*
X19233987Y10702500D01*
X19238752Y10700934D01*
X19250000Y10678672D01*
X19250000Y8302500D01*
X19269500Y8243173D01*
X19350000Y8202500D01*
X20316250Y8202500D01*
X20375577Y8222000D01*
X20416250Y8302500D01*
X20416250Y9362319D01*
X20416865Y9370132D01*
X20419698Y9388021D01*
X20420929Y9403664D01*
X20420929Y9417824D01*
X20423641Y9434943D01*
X20414127Y9495687D01*
X20408750Y9506329D01*
X20408750Y10976487D01*
X20410316Y10981252D01*
X20432578Y10992500D01*
X21586250Y10992500D01*
X21645577Y11012000D01*
X21686250Y11092500D01*
X21686250Y12501177D01*
X21656961Y12571888D01*
X20985638Y13243211D01*
X20914927Y13272500D01*
X18630551Y13272500D01*
X18555810Y13238936D01*
X17431630Y11974234D01*
X17425974Y11968797D01*
X17401149Y11948430D01*
X17393866Y11941831D01*
X17373921Y11921886D01*
X17361343Y11912748D01*
X17361265Y11912708D01*
X17343244Y11900923D01*
X17343185Y11900875D01*
X17329773Y11893016D01*
X17303529Y11882749D01*
X17294563Y11878723D01*
X17269437Y11865921D01*
X17254651Y11861117D01*
X17254571Y11861104D01*
X17233778Y11855461D01*
X17233713Y11855435D01*
X17218525Y11852106D01*
X17190401Y11850451D01*
X17180633Y11849393D01*
X17148885Y11844365D01*
X17141069Y11843750D01*
X15878931Y11843750D01*
X15871118Y11844365D01*
X15853229Y11847198D01*
X15837586Y11848429D01*
X15823429Y11848429D01*
X15808070Y11850862D01*
X15794609Y11855236D01*
X15779346Y11858900D01*
X15765348Y11861117D01*
X15750560Y11865921D01*
X15737932Y11872356D01*
X15723432Y11878362D01*
X15709966Y11882737D01*
X15689101Y11893368D01*
X15687857Y11890926D01*
X15640414Y11906169D01*
X15581218Y11886272D01*
X15541812Y11818225D01*
X15534922Y11761482D01*
X15532050Y11749829D01*
X15482481Y11619128D01*
X15476902Y11608497D01*
X15397496Y11493458D01*
X15389534Y11484472D01*
X15284909Y11391782D01*
X15275023Y11384958D01*
X15151261Y11320002D01*
X15140024Y11315740D01*
X15004315Y11282292D01*
X14992386Y11280843D01*
X14852613Y11280843D01*
X14840684Y11282292D01*
X14704975Y11315740D01*
X14693738Y11320002D01*
X14569976Y11384958D01*
X14560090Y11391782D01*
X14455465Y11484472D01*
X14447503Y11493458D01*
X14368097Y11608497D01*
X14362518Y11619128D01*
X14312949Y11749831D01*
X14310077Y11761481D01*
X14307396Y11783568D01*
X14280888Y11840113D01*
X14226003Y11869905D01*
X14164145Y11861325D01*
X14119439Y11817720D01*
X14108854Y11783571D01*
X14106172Y11761481D01*
X14103300Y11749829D01*
X14053731Y11619128D01*
X14048152Y11608497D01*
X13968746Y11493458D01*
X13960784Y11484472D01*
X13856159Y11391782D01*
X13846273Y11384958D01*
X13722511Y11320002D01*
X13711274Y11315740D01*
X13575565Y11282292D01*
X13563636Y11280843D01*
X13423863Y11280843D01*
X13411934Y11282292D01*
X13276225Y11315740D01*
X13264988Y11320002D01*
X13141226Y11384958D01*
X13131340Y11391782D01*
X13026715Y11484472D01*
X13018753Y11493458D01*
X12939347Y11608497D01*
X12933768Y11619128D01*
X12884199Y11749831D01*
X12881328Y11761481D01*
X12864479Y11900246D01*
X12864479Y11912254D01*
X12881328Y12051018D01*
X12884199Y12062668D01*
X12919989Y12157040D01*
X12922794Y12219427D01*
X12888039Y12271312D01*
X12826487Y12292500D01*
X11856013Y12292500D01*
X11851248Y12294066D01*
X11840000Y12316328D01*
X11840000Y13933677D01*
X11810711Y14004388D01*
X11778138Y14036961D01*
X11707427Y14066250D01*
X7660074Y14066250D01*
X7589363Y14036961D01*
X7235539Y13683137D01*
X7206250Y13612426D01*
X7206250Y11592681D01*
X7205635Y11584869D01*
X7202801Y11566974D01*
X7201570Y11551330D01*
X7201570Y11537176D01*
X7199138Y11521822D01*
X7194763Y11508355D01*
X7191102Y11493102D01*
X7188041Y11473779D01*
X7198018Y11412131D01*
X7242624Y11368424D01*
X7304462Y11359703D01*
X7357520Y11387422D01*
X7558527Y11588429D01*
X7564468Y11593503D01*
X7579129Y11604155D01*
X7591061Y11614346D01*
X7601080Y11624365D01*
X7613647Y11633495D01*
X7626272Y11639928D01*
X7639652Y11648127D01*
X7651117Y11656457D01*
X7664965Y11663513D01*
X7678443Y11667892D01*
X7692940Y11673897D01*
X7705561Y11680328D01*
X7720349Y11685133D01*
X7734337Y11687348D01*
X7749598Y11691012D01*
X7763064Y11695388D01*
X7778426Y11697821D01*
X7792587Y11697821D01*
X7808231Y11699052D01*
X7826119Y11701885D01*
X7833931Y11702500D01*
X8767263Y11702500D01*
X8767263Y12237500D01*
X8762498Y12239066D01*
X8751250Y12261328D01*
X8751250Y13781487D01*
X8752816Y13786252D01*
X8775078Y13797500D01*
X10395236Y13797500D01*
X10431473Y13785589D01*
X10486631Y13783495D01*
X10554436Y13800208D01*
X10566363Y13801656D01*
X10706138Y13801656D01*
X10718063Y13800208D01*
X10729840Y13797305D01*
X10792110Y13802040D01*
X10816904Y13828792D01*
X10863828Y13852500D01*
X11583987Y13852500D01*
X11588752Y13850934D01*
X11600000Y13828672D01*
X11600000Y12308513D01*
X11598434Y12303748D01*
X11576172Y12292500D01*
X10856013Y12292500D01*
X10851248Y12294066D01*
X10840000Y12316328D01*
X10840000Y12454705D01*
X10820500Y12514032D01*
X10769605Y12550222D01*
X10724243Y12551560D01*
X10724066Y12553020D01*
X10706138Y12550843D01*
X10566363Y12550843D01*
X10554436Y12552291D01*
X10535182Y12557037D01*
X10472911Y12552302D01*
X10425593Y12511547D01*
X10411250Y12459943D01*
X10411250Y12253513D01*
X10409684Y12248748D01*
X10387422Y12237500D01*
X8767263Y12237500D01*
X8767263Y11702500D01*
X10233987Y11702500D01*
X10238752Y11700934D01*
X10250000Y11678672D01*
X10250000Y7958513D01*
X10248434Y7953748D01*
X10226172Y7942500D01*
X9028822Y7942500D01*
X8969495Y7923000D01*
X8933305Y7872105D01*
X8934367Y7809664D01*
X8958111Y7771789D01*
X8998111Y7731789D01*
X9068822Y7702500D01*
X10233987Y7702500D01*
X10238752Y7700934D01*
X10250000Y7678672D01*
X10250000Y6458513D01*
X10248434Y6453748D01*
X10226172Y6442500D01*
X8421428Y6442500D01*
X8409708Y6443422D01*
X8409694Y6443241D01*
X8407666Y6443413D01*
X8357132Y6452053D01*
X8355922Y6452252D01*
X8321284Y6457738D01*
X8259168Y6447514D01*
X8166261Y6398752D01*
X8155024Y6394490D01*
X8019315Y6361042D01*
X8007386Y6359593D01*
X7867613Y6359593D01*
X7855684Y6361042D01*
X7719975Y6394490D01*
X7708738Y6398752D01*
X7584976Y6463708D01*
X7575090Y6470532D01*
X7470465Y6563222D01*
X7462503Y6572208D01*
X7383097Y6687247D01*
X7377518Y6697878D01*
X7327949Y6828581D01*
X7325078Y6840230D01*
X7321147Y6872605D01*
X7294639Y6929149D01*
X7239753Y6958941D01*
X7177895Y6950361D01*
X7151165Y6931263D01*
X7076789Y6856887D01*
X7047500Y6786176D01*
X7047500Y1496389D01*
X7081188Y1421538D01*
X7134534Y1374277D01*
X7142496Y1365291D01*
X7221902Y1250252D01*
X7227481Y1239621D01*
X7277050Y1108920D01*
X7279922Y1097267D01*
X7296771Y958504D01*
X7296771Y946496D01*
X7280143Y809554D01*
X7292350Y748308D01*
X7338511Y706248D01*
X7379414Y697500D01*
X8651250Y697500D01*
X8710577Y717000D01*
X8751250Y797500D01*
X8751250Y4573987D01*
X8752816Y4578752D01*
X8775078Y4590000D01*
X8990000Y4590000D01*
X9049327Y4609500D01*
X9090000Y4690000D01*
X9090000Y5342500D01*
X9070500Y5401827D01*
X8990000Y5442500D01*
X8706013Y5442500D01*
X8701248Y5444066D01*
X8690000Y5466328D01*
X8690000Y6186487D01*
X8691566Y6191252D01*
X8713828Y6202500D01*
X10235014Y6202500D01*
X10255092Y6199285D01*
X10255055Y6199052D01*
X10278184Y6195389D01*
X10291659Y6191011D01*
X10306914Y6187348D01*
X10320906Y6185132D01*
X10335687Y6180329D01*
X10348310Y6173897D01*
X10362807Y6167892D01*
X10376286Y6163512D01*
X10390137Y6156455D01*
X10401603Y6148125D01*
X10414983Y6139925D01*
X10427602Y6133495D01*
X10440169Y6124365D01*
X10450192Y6114342D01*
X10462124Y6104152D01*
X10476772Y6093509D01*
X10482728Y6088423D01*
X11107457Y5463694D01*
X11163197Y5435532D01*
X11224775Y5445930D01*
X11268176Y5490834D01*
X11277439Y5546459D01*
X11276979Y5550247D01*
X11276979Y5562254D01*
X11293828Y5701018D01*
X11296699Y5712668D01*
X11346268Y5843371D01*
X11351847Y5854002D01*
X11431253Y5969041D01*
X11439215Y5978027D01*
X11543840Y6070717D01*
X11553726Y6077541D01*
X11677488Y6142497D01*
X11688725Y6146759D01*
X11824434Y6180207D01*
X11836363Y6181656D01*
X11976136Y6181656D01*
X11988065Y6180207D01*
X12123774Y6146759D01*
X12135011Y6142497D01*
X12258773Y6077541D01*
X12268659Y6070717D01*
X12373284Y5978027D01*
X12385259Y5964511D01*
X12386865Y5965934D01*
X12429309Y5933717D01*
X12491753Y5932834D01*
X12536787Y5966018D01*
X12538489Y5964510D01*
X12550465Y5978027D01*
X12655090Y6070717D01*
X12664976Y6077541D01*
X12788738Y6142497D01*
X12799975Y6146759D01*
X12935684Y6180207D01*
X12947613Y6181656D01*
X13087386Y6181656D01*
X13099315Y6180207D01*
X13235024Y6146759D01*
X13246261Y6142497D01*
X13370023Y6077541D01*
X13379909Y6070717D01*
X13484532Y5978029D01*
X13496507Y5964512D01*
X13498793Y5966537D01*
X13553386Y5932167D01*
X13553192Y5931570D01*
X13555554Y5930803D01*
X13557364Y5929663D01*
X13560675Y5929138D01*
X13574135Y5924765D01*
X13589395Y5921101D01*
X13603406Y5918882D01*
X13618187Y5914079D01*
X13630820Y5907642D01*
X13645320Y5901636D01*
X13658779Y5897263D01*
X13672635Y5890203D01*
X13684093Y5881879D01*
X13697469Y5873682D01*
X13710096Y5867248D01*
X13722674Y5858110D01*
X13732695Y5848089D01*
X13744628Y5837898D01*
X13759273Y5827258D01*
X13765226Y5822174D01*
X13985924Y5601476D01*
X13991008Y5595523D01*
X14001648Y5580878D01*
X14011839Y5568945D01*
X14021860Y5558924D01*
X14030998Y5546346D01*
X14037432Y5533719D01*
X14045629Y5520343D01*
X14053953Y5508885D01*
X14061013Y5495029D01*
X14065386Y5481570D01*
X14071392Y5467070D01*
X14077829Y5454437D01*
X14082632Y5439656D01*
X14084851Y5425645D01*
X14088515Y5410385D01*
X14092887Y5396930D01*
X14095319Y5381574D01*
X14095319Y5367426D01*
X14096550Y5351782D01*
X14099385Y5333881D01*
X14100000Y5326069D01*
X14100000Y4952500D01*
X14119500Y4893173D01*
X14200000Y4852500D01*
X14583987Y4852500D01*
X14588752Y4850934D01*
X14600000Y4828672D01*
X14600000Y3308513D01*
X14596317Y3297307D01*
X14563244Y3264346D01*
X14553957Y3246118D01*
X14545628Y3234654D01*
X14537431Y3221278D01*
X14530998Y3208653D01*
X14521860Y3196075D01*
X14511840Y3186055D01*
X14501649Y3174122D01*
X14491009Y3159477D01*
X14485925Y3153524D01*
X14241476Y2909075D01*
X14235523Y2903991D01*
X14220878Y2893351D01*
X14208945Y2883160D01*
X14198920Y2873135D01*
X14186350Y2864003D01*
X14173720Y2857568D01*
X14160337Y2849366D01*
X14148884Y2841045D01*
X14135030Y2833986D01*
X14121560Y2829609D01*
X14107059Y2823603D01*
X14094434Y2817170D01*
X14079652Y2812367D01*
X14065654Y2810150D01*
X14050393Y2806486D01*
X14036933Y2802112D01*
X14021571Y2799679D01*
X14007414Y2799679D01*
X13991771Y2798448D01*
X13973882Y2795615D01*
X13966069Y2795000D01*
X12740073Y2795000D01*
X12669362Y2765711D01*
X10907726Y1004075D01*
X10901773Y998991D01*
X10887128Y988351D01*
X10875195Y978160D01*
X10865170Y968135D01*
X10852600Y959003D01*
X10839970Y952568D01*
X10826587Y944366D01*
X10815134Y936045D01*
X10801280Y928986D01*
X10787810Y924609D01*
X10773309Y918603D01*
X10760684Y912170D01*
X10745902Y907367D01*
X10731904Y905150D01*
X10716643Y901486D01*
X10703183Y897112D01*
X10687821Y894679D01*
X10673664Y894679D01*
X10658021Y893448D01*
X10640132Y890615D01*
X10632319Y890000D01*
X10511250Y890000D01*
X10451923Y870500D01*
X10411250Y790000D01*
X10411250Y506013D01*
X10409684Y501248D01*
X10387422Y490000D01*
X10038356Y490000D01*
X9979029Y470500D01*
X9943250Y420900D01*
X9940001Y410900D01*
X9940214Y348450D01*
X9977436Y298305D01*
X10035107Y280000D01*
X13255000Y280000D01*
X13314327Y299500D01*
G37*
G04 --- BOARD END --- *
%TF.MD5,6389f02c49ea031a07fcd52ad9deee20*%
M02*
